<?xml version="1.0" encoding="UTF-8"?>
<!-- Generator: visioncortex VTracer 0.6.12 -->
<svg version="1.1" xmlns="http://www.w3.org/2000/svg" width="655" height="482">
<path d="M0 0 C33.99 0 67.98 0 103 0 C103 7.26 103 14.52 103 22 C104.071 21.988 104.071 21.988 109.492 21.93 C111.564 21.914 113.636 21.902 115.708 21.89 C117.149 21.88 118.59 21.866 120.032 21.849 C122.102 21.825 124.172 21.814 126.242 21.805 C126.865 21.799 126.865 21.799 130.019 21.773 C133 22 133 22 135 24 C135.227 26.43 135.227 26.43 135.195 29.445 C135.192 29.983 135.192 29.983 135.176 32.707 C135.167 33.271 135.167 33.271 135.125 36.125 C135.116 37.261 135.107 38.396 135.098 39.566 C135.074 42.378 135.041 45.189 135 48 C135.843 47.995 136.686 47.99 137.554 47.984 C140.672 47.967 143.79 47.955 146.908 47.945 C148.259 47.94 149.61 47.933 150.962 47.925 C152.9 47.912 154.839 47.907 156.777 47.902 C157.361 47.9 157.361 47.9 160.316 47.886 C163 48 163 48 164 49 C164.157 50.706 164.251 52.417 164.316 54.129 C164.337 54.646 164.337 54.646 164.443 57.264 C164.483 58.352 164.522 59.441 164.562 60.562 C164.606 61.655 164.649 62.747 164.693 63.873 C164.8 66.582 164.902 69.291 165 72 C165.389 72.013 165.389 72.013 167.355 72.076 C170.862 72.192 174.368 72.314 177.875 72.438 C179.098 72.477 180.322 72.516 181.582 72.557 C182.749 72.599 183.915 72.64 185.117 72.684 C186.196 72.72 187.275 72.757 188.386 72.795 C191 73 191 73 193 74 C193.33 82.25 193.66 90.5 194 99 C202.91 99 211.82 99 221 99 C221.995 101.984 222.196 104.2 222.316 107.324 C222.337 107.838 222.337 107.838 222.443 110.439 C222.483 111.511 222.522 112.583 222.562 113.688 C222.606 114.771 222.649 115.854 222.693 116.971 C222.799 119.647 222.902 122.323 223 125 C223.389 124.997 223.389 124.997 225.355 124.984 C228.862 124.963 232.368 124.95 235.875 124.938 C236.487 124.933 236.487 124.933 239.582 124.912 C240.749 124.909 241.915 124.906 243.117 124.902 C243.657 124.9 243.657 124.9 246.386 124.886 C249 125 249 125 251 126 C251.33 134.91 251.66 143.82 252 153 C265.312 152.938 265.312 152.938 269.501 152.91 C270.59 152.907 271.679 152.905 272.801 152.902 C273.916 152.897 275.032 152.892 276.181 152.886 C279 153 279 153 282 154 C282.33 162.91 282.66 171.82 283 181 C288.61 181.165 288.61 181.165 317 182 C317 173.09 317 164.18 317 155 C321.661 153.136 323.412 152.789 328.176 153.023 C329.333 153.075 330.49 153.127 331.682 153.18 C332.281 153.212 332.281 153.212 335.312 153.375 C336.53 153.432 337.748 153.488 339.002 153.547 C342.002 153.688 345.001 153.839 348 154 C347.99 153.193 347.979 152.385 347.968 151.553 C347.927 147.911 347.901 144.268 347.875 140.625 C347.858 139.354 347.841 138.083 347.824 136.773 C347.818 135.562 347.811 134.35 347.805 133.102 C347.794 131.981 347.784 130.86 347.773 129.706 C348 127 348 127 350 125 C352.614 124.865 352.614 124.865 355.883 125.023 C356.466 125.049 356.466 125.049 359.418 125.18 C360.641 125.244 361.865 125.309 363.125 125.375 C364.356 125.432 365.587 125.488 366.855 125.547 C369.904 125.689 372.952 125.84 376 126 C375.997 125.609 375.997 125.609 375.984 123.629 C375.963 120.107 375.95 116.585 375.938 113.062 C375.929 111.831 375.921 110.599 375.912 109.33 C375.91 108.745 375.91 108.745 375.902 105.785 C375.9 105.243 375.9 105.243 375.886 102.5 C376 100 376 100 377 99 C379.073 98.912 381.148 98.893 383.223 98.902 C383.853 98.904 383.853 98.904 387.041 98.912 C388.382 98.92 389.722 98.929 391.062 98.938 C392.407 98.943 393.751 98.947 395.096 98.951 C398.397 98.963 401.699 98.979 405 99 C404.984 98.319 404.969 97.638 404.952 96.936 C404.89 93.853 404.851 90.771 404.812 87.688 C404.8 87.152 404.8 87.152 404.736 84.439 C404.727 83.411 404.717 82.383 404.707 81.324 C404.691 80.376 404.676 79.428 404.659 78.452 C405 76 405 76 406.158 74.186 C408.761 72.51 410.682 72.66 413.762 72.707 C414.88 72.717 415.998 72.726 417.15 72.736 C418.318 72.761 419.485 72.787 420.688 72.812 C421.866 72.826 423.045 72.84 424.26 72.854 C427.174 72.889 430.087 72.938 433 73 C433.025 72.278 433.05 71.556 433.076 70.813 C433.192 67.562 433.314 64.313 433.438 61.062 C433.457 60.494 433.457 60.494 433.557 57.619 C433.599 56.54 433.64 55.46 433.684 54.348 C433.72 53.347 433.757 52.347 433.795 51.317 C434 49 434 49 435 48 C437.071 47.842 439.147 47.749 441.223 47.684 C442.483 47.642 443.743 47.6 445.041 47.557 C446.382 47.517 447.722 47.477 449.062 47.438 C450.407 47.394 451.751 47.351 453.096 47.307 C456.397 47.2 459.698 47.1 463 47 C463.33 39.08 463.66 31.16 464 23 C466.87 21.565 469.335 21.888 472.539 21.902 C473.841 21.906 475.143 21.909 476.484 21.912 C477.865 21.92 479.245 21.929 480.625 21.938 C482.013 21.943 483.401 21.947 484.789 21.951 C488.193 21.963 491.596 21.981 495 22 C495.33 14.74 495.66 7.48 496 0 C529.33 0 562.66 0 597 0 C597 5.61 597 11.22 597 17 C597.33 18.65 597.66 20.3 598 22 C600.5 22.17 603 22.336 605.5 22.5 C606.196 22.548 606.892 22.595 607.609 22.645 C611.227 22.879 614.781 22.998 618.406 22.906 C622 23 622 23 624 25 C624.252 28.015 624.252 28.015 624.254 31.984 C624.256 32.35 624.256 32.35 624.264 34.199 C624.273 36.673 624.267 39.147 624.261 41.621 C624.264 43.402 624.268 45.184 624.272 46.965 C624.283 51.88 624.28 56.796 624.276 61.711 C624.274 67.004 624.283 72.297 624.29 77.59 C624.303 87.968 624.305 98.345 624.302 108.723 C624.301 117.154 624.302 125.585 624.307 134.016 C624.307 135.213 624.308 136.411 624.308 137.645 C624.31 140.078 624.311 142.511 624.312 144.944 C624.323 167.785 624.321 190.625 624.315 213.466 C624.309 234.383 624.321 255.3 624.34 276.217 C624.359 297.67 624.367 319.123 624.364 340.577 C624.362 352.631 624.364 364.685 624.378 376.739 C624.39 387.001 624.392 397.262 624.38 407.524 C624.374 412.764 624.373 418.003 624.385 423.243 C624.395 428.034 624.392 432.825 624.378 437.616 C624.376 439.354 624.378 441.093 624.386 442.832 C624.396 445.185 624.388 447.537 624.375 449.89 C624.375 451.2 624.375 452.51 624.375 453.86 C624 457 624 457 622.653 458.929 C620.054 460.613 617.851 460.232 614.801 460.074 C613.592 460.019 612.384 459.965 611.139 459.908 C609.876 459.835 608.613 459.763 607.312 459.688 C606.038 459.626 604.764 459.565 603.451 459.502 C600.3 459.349 597.15 459.176 594 459 C594 466.59 594 474.18 594 482 C399.3 482 204.6 482 4 482 C4 475.07 4 468.14 4 461 C2.995 461.006 2.995 461.006 -2.09 461.035 C-4.029 461.042 -5.969 461.049 -7.908 461.055 C-9.259 461.06 -10.61 461.067 -11.962 461.075 C-13.9 461.088 -15.839 461.093 -17.777 461.098 C-18.361 461.1 -18.361 461.1 -21.316 461.114 C-24 461 -24 461 -25 460 C-25.1 456.972 -25.134 453.968 -25.127 450.94 C-25.129 449.976 -25.13 449.013 -25.132 448.02 C-25.136 444.763 -25.133 441.507 -25.129 438.25 C-25.131 435.924 -25.133 433.597 -25.135 431.271 C-25.139 424.917 -25.137 418.563 -25.134 412.209 C-25.132 406.202 -25.134 400.195 -25.135 394.188 C-25.138 381.506 -25.135 368.824 -25.129 356.142 C-25.125 345.366 -25.126 334.59 -25.13 323.814 C-25.136 311.249 -25.138 298.684 -25.135 286.12 C-25.134 284.762 -25.134 283.405 -25.134 282.048 C-25.134 281.38 -25.134 280.713 -25.133 280.025 C-25.133 275.428 -25.134 270.83 -25.136 266.232 C-25.14 258.765 -25.137 251.299 -25.129 243.832 C-25.128 242.652 -25.127 241.472 -25.126 240.256 C-25.097 220.985 -24.792 201.726 -24.261 182.463 C-24.237 181.511 -24.212 180.559 -24.187 179.579 C-24.141 177.816 -24.091 176.053 -24.036 174.291 C-23.943 170.646 -24.076 167.509 -25 164 C-25.089 162.044 -25.122 160.086 -25.12 158.128 C-25.121 157.528 -25.121 157.528 -25.124 154.491 C-25.121 153.177 -25.117 151.864 -25.114 150.511 C-25.113 149.111 -25.113 147.712 -25.114 146.312 C-25.114 142.515 -25.108 138.718 -25.101 134.92 C-25.095 130.951 -25.095 126.982 -25.093 123.013 C-25.09 115.498 -25.082 107.983 -25.072 100.468 C-25.061 91.911 -25.055 83.355 -25.05 74.799 C-25.04 57.199 -25.022 39.6 -25 22 C-16.75 22 -8.5 22 0 22 C0 14.74 0 7.48 0 0 Z " fill="#E84133" transform="translate(25,0)"/>
<path d="M0 0 C0.66 0 1.32 0 2 0 C2 7.59 2 15.18 2 23 C-6.58 23 -15.16 23 -24 23 C-24 50.39 -24 77.78 -24 106 C-14.76 106 -5.52 106 4 106 C5 107 5 107 5.114 109.408 C5.108 110.451 5.103 111.493 5.098 112.566 C5.095 113.579 5.093 114.592 5.09 115.635 C5.081 116.931 5.072 118.227 5.062 119.562 C5.042 123.667 5.021 127.771 5 132 C15.23 132 25.46 132 36 132 C36.165 135.96 36.165 135.96 37 156 C48.55 156.33 60.1 156.66 72 157 C72 165.91 72 174.82 72 184 C82.23 184 92.46 184 103 184 C103 193.24 103 202.48 103 212 C113.23 212 123.46 212 134 212 C134 220.91 134 229.82 134 239 C143.9 239 153.8 239 164 239 C164 247.91 164 256.82 164 266 C173.57 266 183.14 266 193 266 C193 274.91 193 283.82 193 293 C202.9 293 212.8 293 223 293 C223 301.91 223 310.82 223 320 C232.9 320 242.8 320 253 320 C253 328.91 253 337.82 253 347 C263.23 347 273.46 347 284 347 C284 356.24 284 365.48 284 375 C294.23 375 304.46 375 315 375 C315 365.76 315 356.52 315 347 C324.9 347 334.8 347 345 347 C345 338.09 345 329.18 345 320 C354.9 320 364.8 320 375 320 C375 311.09 375 302.18 375 293 C384.9 293 394.8 293 405 293 C405 284.09 405 275.18 405 266 C414.57 266 424.14 266 434 266 C434 257.09 434 248.18 434 239 C444.23 239 454.46 239 465 239 C465 230.09 465 221.18 465 212 C475.23 212 485.46 212 496 212 C496 301.1 496 390.2 496 482 C333.64 482 171.28 482 4 482 C4 475.07 4 468.14 4 461 C2.995 461.006 2.995 461.006 -2.09 461.035 C-4.029 461.042 -5.969 461.049 -7.908 461.055 C-9.259 461.06 -10.61 461.067 -11.962 461.075 C-13.9 461.088 -15.839 461.093 -17.777 461.098 C-18.361 461.1 -18.361 461.1 -21.316 461.114 C-24 461 -24 461 -25 460 C-25.1 456.972 -25.134 453.968 -25.127 450.94 C-25.129 449.976 -25.13 449.013 -25.132 448.02 C-25.136 444.763 -25.133 441.507 -25.129 438.25 C-25.131 435.924 -25.133 433.597 -25.135 431.271 C-25.139 424.917 -25.137 418.563 -25.134 412.209 C-25.132 406.202 -25.134 400.195 -25.135 394.188 C-25.138 381.506 -25.135 368.824 -25.129 356.142 C-25.125 345.366 -25.126 334.59 -25.13 323.814 C-25.136 311.249 -25.138 298.684 -25.135 286.12 C-25.134 284.762 -25.134 283.405 -25.134 282.048 C-25.134 281.38 -25.134 280.713 -25.133 280.025 C-25.133 275.428 -25.134 270.83 -25.136 266.232 C-25.14 258.765 -25.137 251.299 -25.129 243.832 C-25.128 242.652 -25.127 241.472 -25.126 240.256 C-25.097 220.985 -24.792 201.726 -24.261 182.463 C-24.237 181.511 -24.212 180.559 -24.187 179.579 C-24.141 177.816 -24.091 176.053 -24.036 174.291 C-23.943 170.646 -24.076 167.509 -25 164 C-25.089 162.044 -25.122 160.086 -25.12 158.128 C-25.121 157.528 -25.121 157.528 -25.124 154.491 C-25.121 153.177 -25.117 151.864 -25.114 150.511 C-25.113 149.111 -25.113 147.712 -25.114 146.312 C-25.114 142.515 -25.108 138.718 -25.101 134.92 C-25.095 130.951 -25.095 126.982 -25.093 123.013 C-25.09 115.498 -25.082 107.983 -25.072 100.468 C-25.061 91.911 -25.055 83.355 -25.05 74.799 C-25.04 57.199 -25.022 39.6 -25 22 C-16.75 22 -8.5 22 0 22 C0 14.74 0 7.48 0 0 Z " fill="#F3F3F3" transform="translate(25,0)"/>
<path d="M0 0 C9.9 0 19.8 0 30 0 C31.08 16.441 31.157 32.846 31.16 49.314 C31.162 53.381 31.169 57.447 31.176 61.514 C31.19 70.366 31.196 79.218 31.2 88.07 C31.203 93.601 31.207 99.132 31.212 104.662 C31.224 119.994 31.234 135.326 31.238 150.658 C31.238 151.147 31.238 151.147 31.238 153.62 C31.238 154.599 31.239 155.579 31.239 156.588 C31.239 158.573 31.24 160.557 31.24 162.542 C31.24 163.034 31.24 163.034 31.241 165.524 C31.245 181.529 31.262 197.534 31.286 213.538 C31.309 229.993 31.322 246.448 31.323 262.902 C31.324 272.133 31.33 281.363 31.348 290.593 C31.363 298.437 31.368 306.281 31.36 314.125 C31.356 318.127 31.357 322.13 31.371 326.132 C31.384 329.792 31.383 333.451 31.37 337.111 C31.368 339.069 31.38 341.027 31.392 342.986 C31.385 344.14 31.379 345.294 31.372 346.483 C31.373 347.483 31.373 348.484 31.374 349.514 C31 352 31 352 29.653 353.829 C27.074 355.656 24.908 355.235 21.801 355.074 C20.592 355.019 19.384 354.965 18.139 354.908 C16.876 354.835 15.613 354.763 14.312 354.688 C13.675 354.657 13.675 354.657 10.451 354.502 C7.3 354.349 4.15 354.176 1 354 C1 361.59 1 369.18 1 377 C-31.34 377 -63.68 377 -97 377 C-97.15 342.936 -97.296 308.872 -97.433 274.807 C-97.45 270.771 -97.466 266.735 -97.482 262.699 C-97.484 262.298 -97.484 262.298 -97.492 260.265 C-97.545 247.315 -97.601 234.364 -97.659 221.414 C-97.718 208.092 -97.774 194.77 -97.825 181.448 C-97.857 173.25 -97.892 165.053 -97.931 156.855 C-97.958 151.207 -97.98 145.56 -98 139.913 C-98.011 136.671 -98.024 133.429 -98.042 130.187 C-98.132 113.092 -97.725 96.082 -97 79 C-86.11 79 -75.22 79 -64 79 C-64.062 66.063 -64.062 66.063 -64.09 61.977 C-64.093 60.924 -64.095 59.87 -64.098 58.785 C-64.103 57.701 -64.108 56.617 -64.114 55.5 C-64 53 -64 53 -63 52 C-60.479 51.912 -57.986 51.885 -55.465 51.902 C-55.088 51.903 -55.088 51.903 -53.182 51.907 C-50.767 51.912 -48.352 51.925 -45.938 51.938 C-44.304 51.943 -42.671 51.947 -41.037 51.951 C-37.025 51.961 -33.012 51.981 -29 52 C-29 43.42 -29 34.84 -29 26 C-19.43 26 -9.86 26 0 26 C0 17.42 0 8.84 0 0 Z " fill="#48A857" transform="translate(618,105)"/>
<path d="M0 0 C0.66 0 1.32 0 2 0 C2 7.59 2 15.18 2 23 C-6.58 23 -15.16 23 -24 23 C-24 50.39 -24 77.78 -24 106 C-14.76 106 -5.52 106 4 106 C5 107 5 107 5.114 109.408 C5.108 110.451 5.103 111.493 5.098 112.566 C5.095 113.579 5.093 114.592 5.09 115.635 C5.081 116.931 5.072 118.227 5.062 119.562 C5.042 123.667 5.021 127.771 5 132 C15.23 132 25.46 132 36 132 C36.165 135.96 36.165 135.96 37 156 C48.55 156.33 60.1 156.66 72 157 C72 165.91 72 174.82 72 184 C82.23 184 92.46 184 103 184 C102.67 282.34 102.34 380.68 102 482 C69.66 482 37.32 482 4 482 C4 475.07 4 468.14 4 461 C2.995 461.006 2.995 461.006 -2.09 461.035 C-4.029 461.042 -5.969 461.049 -7.908 461.055 C-9.259 461.06 -10.61 461.067 -11.962 461.075 C-13.9 461.088 -15.839 461.093 -17.777 461.098 C-18.361 461.1 -18.361 461.1 -21.316 461.114 C-24 461 -24 461 -25 460 C-25.1 456.972 -25.134 453.968 -25.127 450.94 C-25.129 449.976 -25.13 449.013 -25.132 448.02 C-25.136 444.763 -25.133 441.507 -25.129 438.25 C-25.131 435.924 -25.133 433.597 -25.135 431.271 C-25.139 424.917 -25.137 418.563 -25.134 412.209 C-25.132 406.202 -25.134 400.195 -25.135 394.188 C-25.138 381.506 -25.135 368.824 -25.129 356.142 C-25.125 345.366 -25.126 334.59 -25.13 323.814 C-25.136 311.249 -25.138 298.684 -25.135 286.12 C-25.134 284.762 -25.134 283.405 -25.134 282.048 C-25.134 281.38 -25.134 280.713 -25.133 280.025 C-25.133 275.428 -25.134 270.83 -25.136 266.232 C-25.14 258.765 -25.137 251.299 -25.129 243.832 C-25.128 242.652 -25.127 241.472 -25.126 240.256 C-25.097 220.985 -24.792 201.726 -24.261 182.463 C-24.237 181.511 -24.212 180.559 -24.187 179.579 C-24.141 177.816 -24.091 176.053 -24.036 174.291 C-23.943 170.646 -24.076 167.509 -25 164 C-25.089 162.044 -25.122 160.086 -25.12 158.128 C-25.121 157.528 -25.121 157.528 -25.124 154.491 C-25.121 153.177 -25.117 151.864 -25.114 150.511 C-25.113 149.111 -25.113 147.712 -25.114 146.312 C-25.114 142.515 -25.108 138.718 -25.101 134.92 C-25.095 130.951 -25.095 126.982 -25.093 123.013 C-25.09 115.498 -25.082 107.983 -25.072 100.468 C-25.061 91.911 -25.055 83.355 -25.05 74.799 C-25.04 57.199 -25.022 39.6 -25 22 C-16.75 22 -8.5 22 0 22 C0 14.74 0 7.48 0 0 Z " fill="#458AE8" transform="translate(25,0)"/>
<path d="M0 0 C33.33 0 66.66 0 101 0 C101 5.61 101 11.22 101 17 C101.33 18.65 101.66 20.3 102 22 C104.5 22.17 107 22.336 109.5 22.5 C110.196 22.548 110.892 22.595 111.609 22.645 C115.227 22.879 118.781 22.998 122.406 22.906 C126 23 126 23 128 25 C128.188 27.862 128.252 30.626 128.227 33.489 C128.227 34.367 128.228 35.245 128.228 36.15 C128.227 39.061 128.211 41.972 128.195 44.883 C128.192 46.898 128.189 48.913 128.187 50.928 C128.179 56.238 128.159 61.548 128.137 66.858 C128.117 72.274 128.108 77.69 128.098 83.105 C128.076 93.737 128.042 104.369 128 115 C127.67 115 127.34 115 127 115 C127 111.7 127 108.4 127 105 C117.1 105 107.2 105 97 105 C97 113.58 97 122.16 97 131 C87.43 131 77.86 131 68 131 C68 139.58 68 148.16 68 157 C56.78 157.33 45.56 157.66 34 158 C33.67 166.58 33.34 175.16 33 184 C22.44 184 11.88 184 1 184 C1 131.2 1 78.4 1 24 C-9.56 24 -20.12 24 -31 24 C-31 32.91 -31 41.82 -31 51 C-39.91 51 -48.82 51 -58 51 C-58.952 53.855 -59.19 55.909 -59.316 58.887 C-59.355 59.732 -59.393 60.577 -59.432 61.448 C-59.453 61.983 -59.453 61.983 -59.562 64.688 C-59.707 68.091 -59.851 71.494 -60 75 C-69.9 75 -79.8 75 -90 75 C-88 73 -88 73 -85.478 72.773 C-84.96 72.778 -84.96 72.778 -82.336 72.805 C-81.214 72.811 -80.093 72.818 -78.938 72.824 C-77.762 72.841 -76.586 72.858 -75.375 72.875 C-74.192 72.884 -73.008 72.893 -71.789 72.902 C-68.859 72.926 -65.93 72.959 -63 73 C-62.975 72.278 -62.95 71.556 -62.924 70.813 C-62.808 67.562 -62.686 64.313 -62.562 61.062 C-62.523 59.926 -62.484 58.79 -62.443 57.619 C-62.401 56.54 -62.36 55.46 -62.316 54.348 C-62.28 53.347 -62.243 52.347 -62.205 51.317 C-62 49 -62 49 -61 48 C-58.929 47.842 -56.853 47.749 -54.777 47.684 C-53.517 47.642 -52.257 47.6 -50.959 47.557 C-49.618 47.517 -48.278 47.477 -46.938 47.438 C-45.593 47.394 -44.249 47.351 -42.904 47.307 C-39.603 47.2 -36.302 47.1 -33 47 C-32.67 39.08 -32.34 31.16 -32 23 C-29.13 21.565 -26.665 21.888 -23.461 21.902 C-22.81 21.904 -22.81 21.904 -19.516 21.912 C-18.135 21.92 -16.755 21.929 -15.375 21.938 C-13.987 21.943 -12.599 21.947 -11.211 21.951 C-7.807 21.963 -4.404 21.981 -1 22 C-0.67 14.74 -0.34 7.48 0 0 Z " fill="#FAB705" transform="translate(521,0)"/>
<path d="M0 0 C10.23 0 20.46 0 31 0 C31 89.1 31 178.2 31 270 C30.67 270 30.34 270 30 270 C30 262.74 30 255.48 30 248 C27.846 248.012 25.692 248.023 23.473 248.035 C21.394 248.043 19.316 248.049 17.238 248.055 C15.789 248.06 14.341 248.067 12.893 248.075 C10.815 248.088 8.738 248.093 6.66 248.098 C5.409 248.103 4.157 248.108 2.867 248.114 C0 248 0 248 -1 247 C-1.094 245.312 -1.117 243.62 -1.114 241.929 C-1.113 241.389 -1.113 241.389 -1.113 238.654 C-1.108 237.478 -1.103 236.302 -1.098 235.09 C-1.096 233.893 -1.095 232.696 -1.093 231.462 C-1.088 227.621 -1.075 223.779 -1.062 219.938 C-1.057 217.34 -1.053 214.743 -1.049 212.146 C-1.038 205.764 -1.021 199.382 -1 193 C-1.873 193.005 -2.747 193.01 -3.646 193.016 C-6.876 193.033 -10.106 193.045 -13.335 193.055 C-14.735 193.06 -16.135 193.067 -17.534 193.075 C-19.542 193.088 -21.551 193.093 -23.559 193.098 C-24.768 193.103 -25.978 193.108 -27.224 193.114 C-30 193 -30 193 -31 192 C-31.088 189.854 -31.107 187.706 -31.098 185.559 C-31.096 184.906 -31.096 184.906 -31.088 181.604 C-31.08 180.215 -31.071 178.826 -31.062 177.438 C-31.057 176.045 -31.053 174.652 -31.049 173.26 C-31.037 169.84 -31.021 166.42 -31 163 C-31.843 163.005 -32.686 163.01 -33.554 163.016 C-36.672 163.033 -39.79 163.045 -42.908 163.055 C-44.259 163.06 -45.61 163.067 -46.962 163.075 C-48.9 163.088 -50.839 163.093 -52.777 163.098 C-53.945 163.103 -55.113 163.108 -56.316 163.114 C-59 163 -59 163 -60 162 C-60.088 160 -60.107 157.998 -60.098 155.996 C-60.095 154.902 -60.093 153.808 -60.09 152.681 C-60.081 151.281 -60.072 149.88 -60.062 148.438 C-60.042 144.003 -60.021 139.569 -60 135 C-69.9 135 -79.8 135 -90 135 C-90.165 130.875 -90.165 130.875 -91 110 C-99.91 110 -108.82 110 -118 110 C-118.33 118.25 -118.66 126.5 -119 135 C-119.33 135 -119.66 135 -120 135 C-120 126.09 -120 117.18 -120 108 C-110.1 108 -100.2 108 -90 108 C-90 99.09 -90 90.18 -90 81 C-80.1 81 -70.2 81 -60 81 C-60 72.09 -60 63.18 -60 54 C-50.43 54 -40.86 54 -31 54 C-31 45.09 -31 36.18 -31 27 C-20.77 27 -10.54 27 0 27 C0 18.09 0 9.18 0 0 Z " fill="#F2F2F2" transform="translate(490,212)"/>
<path d="M0 0 C32.67 0 65.34 0 99 0 C99 7.59 99 15.18 99 23 C89.43 23 79.86 23 70 23 C70 66.89 70 110.78 70 156 C64.39 155.835 64.39 155.835 36 155 C36 147.08 36 139.16 36 131 C25.44 131 14.88 131 4 131 C3.67 122.09 3.34 113.18 3 104 C-6.24 104 -15.48 104 -25 104 C-24.892 94.273 -24.78 84.546 -24.661 74.819 C-24.605 70.303 -24.552 65.786 -24.503 61.27 C-24.455 56.913 -24.403 52.555 -24.347 48.198 C-24.327 46.535 -24.308 44.871 -24.291 43.207 C-24.267 40.88 -24.237 38.553 -24.205 36.225 C-24.2 35.535 -24.194 34.844 -24.188 34.133 C-24.142 31.149 -23.952 28.856 -23 26 C-15.74 26 -8.48 26 -1 26 C-0.67 17.42 -0.34 8.84 0 0 Z " fill="#CC2113" transform="translate(27,0)"/>
<path d="M0 0 C0.66 0 1.32 0 2 0 C2 7.59 2 15.18 2 23 C-6.58 23 -15.16 23 -24 23 C-24 50.39 -24 77.78 -24 106 C-14.76 106 -5.52 106 4 106 C5 107 5 107 5.124 109.375 C5.124 110.441 5.123 111.507 5.123 112.605 C5.125 113.829 5.127 115.054 5.129 116.316 C5.126 117.692 5.123 119.069 5.12 120.446 C5.121 121.894 5.122 123.343 5.123 124.792 C5.125 128.791 5.121 132.791 5.116 136.791 C5.112 141.097 5.113 145.403 5.114 149.709 C5.114 157.176 5.111 164.643 5.106 172.109 C5.098 182.905 5.095 193.701 5.094 204.497 C5.092 222.011 5.085 239.525 5.075 257.039 C5.066 274.056 5.059 291.074 5.055 308.092 C5.055 308.616 5.055 308.616 5.054 311.268 C5.053 316.526 5.052 321.784 5.05 327.042 C5.04 370.695 5.022 414.347 5 458 C-4.57 458 -14.14 458 -24 458 C-24.871 430.84 -25.151 403.708 -25.134 376.534 C-25.132 371.069 -25.134 365.604 -25.136 360.138 C-25.138 350.963 -25.135 341.787 -25.13 332.612 C-25.125 322.15 -25.127 311.688 -25.132 301.226 C-25.137 292.102 -25.137 282.978 -25.135 273.853 C-25.133 268.467 -25.133 263.08 -25.136 257.694 C-25.14 251.653 -25.137 245.613 -25.129 239.573 C-25.128 238.609 -25.127 237.645 -25.126 236.653 C-25.093 218.755 -24.744 200.867 -24.261 182.976 C-24.237 182 -24.212 181.023 -24.187 180.017 C-24.141 178.193 -24.091 176.37 -24.036 174.547 C-24.016 173.739 -23.996 172.931 -23.976 172.099 C-23.957 171.4 -23.937 170.701 -23.917 169.98 C-24.006 167.864 -24.46 166.043 -25 164 C-25.089 162.044 -25.122 160.086 -25.12 158.128 C-25.121 157.528 -25.121 157.528 -25.124 154.491 C-25.121 153.177 -25.117 151.864 -25.114 150.511 C-25.113 149.111 -25.113 147.712 -25.114 146.312 C-25.114 142.515 -25.108 138.718 -25.101 134.92 C-25.095 130.951 -25.095 126.982 -25.093 123.013 C-25.09 115.498 -25.082 107.983 -25.072 100.468 C-25.061 91.911 -25.055 83.355 -25.05 74.799 C-25.04 57.199 -25.022 39.6 -25 22 C-16.75 22 -8.5 22 0 22 C0 14.74 0 7.48 0 0 Z " fill="#1B6DE4" transform="translate(25,0)"/>
<path d="M0 0 C0.33 0 0.66 0 1 0 C0.67 116.49 0.34 232.98 0 353 C-9.57 353 -19.14 353 -29 353 C-29 245.42 -29 137.84 -29 27 C-28.34 27 -27.68 27 -27 27 C-27 18.75 -27 10.5 -27 2 C-26.067 1.97 -26.067 1.97 -21.348 1.816 C-18.919 1.732 -16.491 1.647 -14.062 1.562 C-12.831 1.523 -11.599 1.484 -10.33 1.443 C-9.745 1.422 -9.745 1.422 -6.785 1.316 C-5.701 1.28 -4.617 1.243 -3.5 1.205 C-1 1 -1 1 0 0 Z " fill="#3E934A" transform="translate(647,105)"/>
<path d="M0 0 C0.66 0 1.32 0 2 0 C2 7.26 2 14.52 2 22 C2.66 22 3.32 22 4 22 C5.288 24.575 5.123 26.405 5.12 29.29 C5.121 29.851 5.121 29.851 5.124 32.689 C5.123 33.307 5.123 33.307 5.114 36.436 C5.114 37.734 5.114 39.031 5.114 40.368 C5.114 43.932 5.108 47.496 5.101 51.059 C5.095 54.782 5.095 58.504 5.093 62.226 C5.09 69.277 5.082 76.329 5.072 83.38 C5.061 91.406 5.055 99.433 5.05 107.459 C5.04 123.973 5.022 140.486 5 157 C4.01 157 3.02 157 2 157 C2 165.58 2 174.16 2 183 C11.9 183 21.8 183 32 183 C31.928 181.123 31.928 181.123 31.562 171.625 C31.541 171.034 31.541 171.034 31.432 168.042 C31.394 167.113 31.356 166.184 31.316 165.227 C31.28 164.273 31.243 163.32 31.205 162.338 C31 160 31 160 30 158 C26.205 157.835 26.205 157.835 7 157 C6.954 140.528 6.918 124.055 6.896 107.583 C6.886 99.934 6.872 92.286 6.849 84.637 C6.829 77.971 6.816 71.304 6.812 64.638 C6.809 61.108 6.803 57.578 6.789 54.049 C6.772 50.108 6.772 46.167 6.773 42.226 C6.766 41.056 6.759 39.887 6.751 38.682 C6.754 37.606 6.757 36.531 6.759 35.423 C6.758 34.491 6.756 33.559 6.754 32.599 C7.023 29.754 7.82 27.589 9 25 C10.98 25.33 12.96 25.66 15 26 C15 25.34 15 24.68 15 24 C17.292 23.973 19.583 23.954 21.875 23.938 C23.151 23.926 24.427 23.914 25.742 23.902 C29 24 29 24 31 25 C31 63.28 31 101.56 31 141 C31.66 141 32.32 141 33 141 C33 141.99 33 142.98 33 144 C32.34 144 31.68 144 31 144 C31 145.98 31 147.96 31 150 C31.969 150.309 32.939 150.619 33.938 150.938 C37 152 37 152 38 153 C40.071 153.158 42.147 153.251 44.223 153.316 C44.853 153.337 44.853 153.337 48.041 153.443 C49.382 153.483 50.722 153.523 52.062 153.562 C53.407 153.606 54.751 153.649 56.096 153.693 C59.397 153.8 62.698 153.9 66 154 C65.67 146.74 65.34 139.48 65 132 C64.34 131.67 63.68 131.34 63 131 C63 130.01 63 129.02 63 128 C68.445 128.165 68.445 128.165 96 129 C96 121.08 96 113.16 96 105 C96.33 105 96.66 105 97 105 C97 113.58 97 122.16 97 131 C87.43 131 77.86 131 68 131 C68 139.58 68 148.16 68 157 C56.78 157.33 45.56 157.66 34 158 C33.67 166.58 33.34 175.16 33 184 C22.44 184 11.88 184 1 184 C1 131.2 1 78.4 1 24 C-9.56 24 -20.12 24 -31 24 C-31 32.91 -31 41.82 -31 51 C-39.91 51 -48.82 51 -58 51 C-58.952 53.855 -59.19 55.909 -59.316 58.887 C-59.355 59.732 -59.393 60.577 -59.432 61.448 C-59.453 61.983 -59.453 61.983 -59.562 64.688 C-59.707 68.091 -59.851 71.494 -60 75 C-69.9 75 -79.8 75 -90 75 C-88 73 -88 73 -85.478 72.773 C-84.96 72.778 -84.96 72.778 -82.336 72.805 C-81.214 72.811 -80.093 72.818 -78.938 72.824 C-77.762 72.841 -76.586 72.858 -75.375 72.875 C-74.192 72.884 -73.008 72.893 -71.789 72.902 C-68.859 72.926 -65.93 72.959 -63 73 C-62.975 72.278 -62.95 71.556 -62.924 70.813 C-62.808 67.562 -62.686 64.313 -62.562 61.062 C-62.523 59.926 -62.484 58.79 -62.443 57.619 C-62.401 56.54 -62.36 55.46 -62.316 54.348 C-62.28 53.347 -62.243 52.347 -62.205 51.317 C-62 49 -62 49 -61 48 C-58.929 47.842 -56.853 47.749 -54.777 47.684 C-53.517 47.642 -52.257 47.6 -50.959 47.557 C-49.618 47.517 -48.278 47.477 -46.938 47.438 C-45.593 47.394 -44.249 47.351 -42.904 47.307 C-39.603 47.2 -36.302 47.1 -33 47 C-32.67 39.08 -32.34 31.16 -32 23 C-29.13 21.565 -26.665 21.888 -23.461 21.902 C-22.81 21.904 -22.81 21.904 -19.516 21.912 C-18.135 21.92 -16.755 21.929 -15.375 21.938 C-13.987 21.943 -12.599 21.947 -11.211 21.951 C-7.807 21.963 -4.404 21.981 -1 22 C-0.67 14.74 -0.34 7.48 0 0 Z " fill="#FAB812" transform="translate(521,0)"/>
<path d="M0 0 C0.33 0 0.66 0 1 0 C1 63.36 1 126.72 1 192 C10.9 192 20.8 192 31 192 C30.938 177.563 30.938 177.563 30.91 173.002 C30.907 171.827 30.905 170.652 30.902 169.441 C30.897 168.232 30.892 167.022 30.886 165.776 C31 163 31 163 32 162 C34.146 161.912 36.294 161.893 38.441 161.902 C39.747 161.906 41.052 161.909 42.396 161.912 C43.785 161.92 45.174 161.929 46.562 161.938 C47.955 161.943 49.348 161.947 50.74 161.951 C54.16 161.963 57.58 161.981 61 162 C61 153.09 61 144.18 61 135 C70.9 135 80.8 135 91 135 C91 144.24 91 153.48 91 163 C81.43 163 71.86 163 62 163 C62.062 177.437 62.062 177.437 62.09 181.998 C62.093 183.173 62.095 184.348 62.098 185.559 C62.103 186.768 62.108 187.978 62.114 189.224 C62 192 62 192 61 193 C58.854 193.088 56.706 193.107 54.559 193.098 C53.384 193.095 52.208 193.093 50.998 193.09 C50.245 193.086 50.245 193.086 46.438 193.062 C41.673 193.042 36.909 193.021 32 193 C32 211.15 32 229.3 32 248 C21.77 248 11.54 248 1 248 C1 255.26 1 262.52 1 270 C0.67 270 0.34 270 0 270 C0 180.9 0 91.8 0 0 Z " fill="#DFDFDF" transform="translate(127,212)"/>
<path d="M0 0 C10.23 0 20.46 0 31 0 C31.33 7.92 31.66 15.84 32 24 C43.55 24.33 55.1 24.66 67 25 C67 33.91 67 42.82 67 52 C77.23 52 87.46 52 98 52 C97.67 150.34 97.34 248.68 97 350 C88.42 350 79.84 350 71 350 C71.33 349.34 71.66 348.68 72 348 C75.062 347.375 75.062 347.375 78 347 C78 346.34 78 345.68 78 345 C77.01 344.67 76.02 344.34 75 344 C75.163 342.935 75.326 341.87 75.494 340.773 C76.203 335.063 76.124 329.371 76.098 323.625 C76.096 322.46 76.095 321.295 76.093 320.094 C76.088 316.396 76.075 312.698 76.062 309 C76.057 306.483 76.053 303.966 76.049 301.449 C76.038 295.299 76.021 289.15 76 283 C77.32 283 78.64 283 80 283 C80 293.23 80 303.46 80 314 C80.66 314 81.32 314 82 314 C82 303.77 82 293.54 82 283 C83.32 282.67 84.64 282.34 86 282 C86 280.68 86 279.36 86 278 C86.66 278 87.32 278 88 278 C88 276.35 88 274.7 88 273 C88.33 273 88.66 273 89 273 C90.284 280.858 90.127 288.719 90.098 296.656 C90.096 298.169 90.094 299.683 90.093 301.196 C90.09 305.154 90.08 309.113 90.069 313.072 C90.058 317.121 90.054 321.17 90.049 325.219 C90.038 333.146 90.021 341.073 90 349 C90.66 349 91.32 349 92 349 C92 262.54 92 176.08 92 87 C92.66 87 93.32 87 94 87 C94 153.99 94 220.98 94 290 C94.33 212.45 94.66 134.9 95 55 C90.38 54.835 90.38 54.835 67 54 C65 52 65 52 64.773 49.478 C64.783 48.441 64.794 47.404 64.805 46.336 C64.81 45.326 64.815 44.316 64.82 43.275 C64.838 41.988 64.856 40.701 64.875 39.375 C64.916 35.291 64.957 31.208 65 27 C53.12 27 41.24 27 29 27 C29 18.75 29 10.5 29 2 C19.76 2 10.52 2 1 2 C0.67 1.34 0.34 0.68 0 0 Z " fill="#4689E9" transform="translate(30,132)"/>
<path d="M0 0 C10.23 0 20.46 0 31 0 C31 89.1 31 178.2 31 270 C30.67 270 30.34 270 30 270 C30 262.74 30 255.48 30 248 C20.1 248 10.2 248 0 248 C0 229.85 0 211.7 0 193 C9.9 193 19.8 193 30 193 C30 129.97 30 66.94 30 2 C28.68 2 27.36 2 26 2 C26.165 2.66 26.165 2.66 27 6 C22.25 7 22.25 7 20 7 C19.34 7.99 18.68 8.98 18 10 C16.68 10 15.36 10 14 10 C14 9.34 14 8.68 14 8 C12.68 8 11.36 8 10 8 C9.835 7.34 9.835 7.34 9 4 C6.69 3.67 4.38 3.34 2 3 C2.005 3.752 2.01 4.504 2.016 5.279 C2.037 8.665 2.05 12.051 2.062 15.438 C2.071 16.622 2.079 17.806 2.088 19.025 C2.091 20.15 2.094 21.275 2.098 22.434 C2.103 23.476 2.108 24.518 2.114 25.592 C2 28 2 28 1 29 C-1.219 29.088 -3.44 29.107 -5.66 29.098 C-5.992 29.097 -5.992 29.097 -7.674 29.093 C-9.803 29.088 -11.933 29.075 -14.062 29.062 C-15.503 29.057 -16.944 29.053 -18.385 29.049 C-21.923 29.038 -25.462 29.021 -29 29 C-28.997 29.373 -28.997 29.373 -28.984 31.263 C-28.963 34.634 -28.95 38.004 -28.938 41.375 C-28.929 42.551 -28.921 43.726 -28.912 44.938 C-28.91 45.498 -28.91 45.498 -28.902 48.336 C-28.9 48.854 -28.9 48.854 -28.886 51.478 C-29 54 -29 54 -30 56 C-39.24 56.33 -48.48 56.66 -58 57 C-58.33 64.92 -58.66 72.84 -59 81 C-59.33 81 -59.66 81 -60 81 C-60 72.09 -60 63.18 -60 54 C-50.43 54 -40.86 54 -31 54 C-31 45.09 -31 36.18 -31 27 C-20.77 27 -10.54 27 0 27 C0 18.09 0 9.18 0 0 Z " fill="#D7DED8" transform="translate(490,212)"/>
<path d="M0 0 C0.66 0 1.32 0 2 0 C2 7.26 2 14.52 2 22 C3.071 21.988 3.071 21.988 8.492 21.93 C10.564 21.914 12.636 21.902 14.708 21.89 C16.149 21.88 17.59 21.866 19.032 21.849 C21.102 21.825 23.172 21.814 25.242 21.805 C25.865 21.799 25.865 21.799 29.019 21.773 C32 22 32 22 34 24 C34.227 26.43 34.227 26.43 34.195 29.445 C34.189 30.522 34.182 31.598 34.176 32.707 C34.159 33.835 34.142 34.963 34.125 36.125 C34.116 37.261 34.107 38.396 34.098 39.566 C34.074 42.378 34.041 45.189 34 48 C34.843 47.995 35.686 47.99 36.554 47.984 C39.672 47.967 42.79 47.955 45.908 47.945 C47.259 47.94 48.61 47.933 49.962 47.925 C51.9 47.912 53.839 47.907 55.777 47.902 C56.361 47.9 56.361 47.9 59.316 47.886 C62 48 62 48 63 49 C63.157 50.706 63.251 52.417 63.316 54.129 C63.358 55.163 63.4 56.198 63.443 57.264 C63.483 58.352 63.522 59.441 63.562 60.562 C63.606 61.655 63.649 62.747 63.693 63.873 C63.8 66.582 63.902 69.291 64 72 C64.389 72.013 64.389 72.013 66.355 72.076 C69.862 72.192 73.368 72.314 76.875 72.438 C78.098 72.477 79.322 72.516 80.582 72.557 C81.749 72.599 82.915 72.64 84.117 72.684 C84.657 72.702 84.657 72.702 87.386 72.795 C90 73 90 73 92 74 C92.165 78.125 92.165 78.125 93 99 C101.91 99 110.82 99 120 99 C120.995 101.984 121.196 104.2 121.316 107.324 C121.358 108.352 121.4 109.38 121.443 110.439 C121.483 111.511 121.522 112.583 121.562 113.688 C121.606 114.771 121.649 115.854 121.693 116.971 C121.799 119.647 121.902 122.323 122 125 C122.389 124.997 122.389 124.997 124.355 124.984 C127.862 124.963 131.368 124.95 134.875 124.938 C135.487 124.933 135.487 124.933 138.582 124.912 C139.749 124.909 140.915 124.906 142.117 124.902 C142.657 124.9 142.657 124.9 145.386 124.886 C148 125 148 125 150 126 C150.33 134.91 150.66 143.82 151 153 C164.312 152.938 164.312 152.938 168.501 152.91 C169.59 152.907 170.679 152.905 171.801 152.902 C172.916 152.897 174.032 152.892 175.181 152.886 C178 153 178 153 181 154 C181.33 162.91 181.66 171.82 182 181 C187.61 181.165 187.61 181.165 216 182 C216 173.09 216 164.18 216 155 C220.661 153.136 222.412 152.789 227.176 153.023 C228.333 153.075 229.49 153.127 230.682 153.18 C231.281 153.212 231.281 153.212 234.312 153.375 C235.53 153.432 236.748 153.488 238.002 153.547 C241.002 153.688 244.001 153.839 247 154 C246.99 153.193 246.979 152.385 246.968 151.553 C246.927 147.911 246.901 144.268 246.875 140.625 C246.858 139.354 246.841 138.083 246.824 136.773 C246.818 135.562 246.811 134.35 246.805 133.102 C246.794 131.981 246.784 130.86 246.773 129.706 C247 127 247 127 249 125 C251.614 124.865 251.614 124.865 254.883 125.023 C255.466 125.049 255.466 125.049 258.418 125.18 C259.641 125.244 260.865 125.309 262.125 125.375 C263.356 125.432 264.587 125.488 265.855 125.547 C268.904 125.689 271.952 125.84 275 126 C274.997 125.609 274.997 125.609 274.984 123.629 C274.963 120.107 274.95 116.585 274.938 113.062 C274.929 111.831 274.921 110.599 274.912 109.33 C274.91 108.745 274.91 108.745 274.902 105.785 C274.9 105.243 274.9 105.243 274.886 102.5 C275 100 275 100 276 99 C278.073 98.912 280.148 98.893 282.223 98.902 C282.853 98.904 282.853 98.904 286.041 98.912 C287.382 98.92 288.722 98.929 290.062 98.938 C291.407 98.943 292.751 98.947 294.096 98.951 C297.397 98.963 300.699 98.979 304 99 C303.997 98.654 303.997 98.654 303.984 96.905 C303.963 93.791 303.95 90.677 303.938 87.562 C303.929 86.474 303.921 85.385 303.912 84.264 C303.91 83.746 303.91 83.746 303.902 81.129 C303.9 80.65 303.9 80.65 303.886 78.225 C304 76 304 76 305 75 C307.146 74.912 309.294 74.893 311.441 74.902 C312.747 74.906 314.052 74.909 315.396 74.912 C316.785 74.92 318.174 74.929 319.562 74.938 C320.955 74.943 322.348 74.947 323.74 74.951 C327.16 74.963 330.58 74.979 334 75 C334 75.99 334 76.98 334 78 C333.505 78.165 333.505 78.165 331 79 C330.67 85.93 330.34 92.86 330 100 C325.05 100 320.1 100 315 100 C314.67 100.99 314.34 101.98 314 103 C313.01 103 312.02 103 311 103 C310.505 104.155 310.505 104.155 308 110 C307.34 110 306.68 110 306 110 C306 108.68 306 107.36 306 106 C305.34 106 304.68 106 304 106 C304 105.01 304 104.02 304 103 C303.5 103.164 303 103.327 302.484 103.496 C299.074 104.188 295.713 104.105 292.25 104.062 C291.553 104.058 290.855 104.053 290.137 104.049 C288.424 104.037 286.712 104.019 285 104 C284.752 104.804 284.505 105.609 284.25 106.438 C283.837 107.283 283.425 108.129 283 109 C281.68 109.33 280.36 109.66 279 110 C279 115.94 279 121.88 279 128 C275.822 129.059 273.574 129.115 270.238 129.098 C269.12 129.094 268.002 129.091 266.85 129.088 C265.682 129.08 264.515 129.071 263.312 129.062 C262.134 129.058 260.955 129.053 259.74 129.049 C256.827 129.037 253.913 129.021 251 129 C251.005 129.782 251.01 130.565 251.016 131.371 C251.037 134.893 251.05 138.415 251.062 141.938 C251.071 143.169 251.079 144.401 251.088 145.67 C251.091 146.84 251.094 148.01 251.098 149.215 C251.103 150.299 251.108 151.383 251.114 152.5 C251 155 251 155 250 156 C247.624 156.088 245.278 156.115 242.902 156.098 C242.548 156.097 242.548 156.097 240.754 156.093 C238.482 156.088 236.21 156.075 233.938 156.062 C232.4 156.057 230.863 156.053 229.326 156.049 C225.551 156.039 221.775 156.019 218 156 C218 164.91 218 173.82 218 183 C205.46 183 192.92 183 180 183 C180 173.76 180 164.52 180 155 C169.44 155 158.88 155 148 155 C148 145.76 148 136.52 148 127 C138.43 127 128.86 127 119 127 C119 118.09 119 109.18 119 100 C109.43 100 99.86 100 90 100 C90 91.75 90 83.5 90 75 C80.43 75 70.86 75 61 75 C61 66.75 61 58.5 61 50 C58.918 50.012 56.836 50.023 54.691 50.035 C52.683 50.042 50.674 50.049 48.665 50.055 C47.265 50.06 45.865 50.067 44.466 50.075 C42.458 50.088 40.449 50.093 38.441 50.098 C37.232 50.103 36.022 50.108 34.776 50.114 C32 50 32 50 31 49 C30.913 47.219 30.893 45.435 30.902 43.652 C30.905 42.68 30.907 41.708 30.91 40.707 C30.919 39.463 30.928 38.219 30.938 36.938 C30.958 32.998 30.979 29.059 31 25 C20.77 25 10.54 25 0 25 C0 16.75 0 8.5 0 0 Z " fill="#E66358" transform="translate(126,0)"/>
<path d="M0 0 C0.66 0 1.32 0 2 0 C2.023 18.741 2.041 37.481 2.052 56.222 C2.057 64.923 2.064 73.625 2.075 82.326 C2.085 89.907 2.092 97.489 2.094 105.071 C2.095 109.088 2.098 113.104 2.106 117.12 C2.112 120.898 2.115 124.675 2.113 128.452 C2.113 129.841 2.115 131.23 2.119 132.62 C2.124 134.511 2.122 136.402 2.12 138.293 C2.121 139.353 2.122 140.413 2.123 141.505 C2 144 2 144 1 146 C-2 145 -2 145 -3 144 C-7.797 143.593 -10.148 143.574 -14.5 145.75 C-15.325 146.493 -16.15 147.235 -17 148 C-17 149.32 -17 150.64 -17 152 C-18.32 152 -19.64 152 -21 152 C-21 152.66 -21 153.32 -21 154 C-21.99 153.67 -22.98 153.34 -24 153 C-23.67 151.35 -23.34 149.7 -23 148 C-22.01 148 -21.02 148 -20 148 C-20.163 147.141 -20.325 146.283 -20.493 145.398 C-20.988 142.077 -21.12 138.982 -21.114 135.627 C-21.113 135.007 -21.113 135.007 -21.113 131.867 C-21.108 130.529 -21.103 129.19 -21.098 127.852 C-21.096 126.47 -21.094 125.089 -21.093 123.707 C-21.09 120.087 -21.08 116.467 -21.069 112.847 C-21.058 109.147 -21.054 105.446 -21.049 101.746 C-21.038 94.497 -21.021 87.249 -21 80 C-21.33 80 -21.66 80 -22 80 C-22.043 78 -22.041 76 -22 74 C-21.835 73.835 -21.835 73.835 -21 73 C-20.719 70.68 -20.552 68.361 -20.379 66.031 C-20.254 65.361 -20.129 64.691 -20 64 C-19.67 63.835 -19.67 63.835 -18 63 C-17.67 64.98 -17.34 66.96 -17 69 C-12.05 69.33 -7.1 69.66 -2 70 C-1.248 64.735 -0.974 61.281 -1.438 56.188 C-1.894 50.238 -2.116 44.342 -2.125 38.375 C-2.129 37.617 -2.134 36.86 -2.138 36.079 C-2.131 33.153 -2.075 30.37 -1.492 27.496 C-0.648 23.214 -0.961 18.849 -1.039 14.502 C-1.092 9.569 -0.707 4.885 0 0 Z " fill="#186BE6" transform="translate(26,302)"/>
<path d="M0 0 C0.33 0 0.66 0 1 0 C1 8.91 1 17.82 1 27 C10.57 27 20.14 27 30 27 C30 35.58 30 44.16 30 53 C39.57 53 49.14 53 59 53 C59 62.24 59 71.48 59 81 C49.43 81 39.86 81 30 81 C30 72.09 30 63.18 30 54 C20.1 54 10.2 54 0 54 C-0.165 49.875 -0.165 49.875 -1 29 C-9.91 29 -18.82 29 -28 29 C-28.33 37.25 -28.66 45.5 -29 54 C-29.33 54 -29.66 54 -30 54 C-30 45.09 -30 36.18 -30 27 C-20.1 27 -10.2 27 0 27 C0 18.09 0 9.18 0 0 Z " fill="#DEDEDE" transform="translate(400,293)"/>
<path d="M0 0 C10.56 0 21.12 0 32 0 C32 52.8 32 105.6 32 160 C31.01 160 30.02 160 29 160 C29 117.76 29 75.52 29 32 C24.05 32 19.1 32 14 32 C14 35.96 14 39.92 14 44 C8.72 44 3.44 44 -2 44 C-2 38.625 -1.202 36.679 1 32 C0.01 32 -0.98 32 -2 32 C-1.842 31.474 -1.683 30.949 -1.52 30.407 C-0.873 27.41 -0.781 24.549 -0.684 21.484 C-0.665 20.921 -0.665 20.921 -0.568 18.069 C-0.525 16.644 -0.482 15.219 -0.438 13.75 C-0.365 11.481 -0.365 11.481 0 0 Z " fill="#E74230" transform="translate(490,24)"/>
<path d="M0 0 C8.163 -0.628 8.163 -0.628 11.5 1.875 C14.029 5.457 14.095 7.635 14 12 C13.216 12.268 12.433 12.536 11.625 12.812 C9 14 9 14 7 17 C6.801 21.186 6.662 24.986 8 29 C7.34 29 6.68 29 6 29 C6 29.66 6 30.32 6 31 C5.34 31.33 4.68 31.66 4 32 C4 37.61 4 43.22 4 49 C4.66 49 5.32 49 6 49 C6 49.66 6 50.32 6 51 C6.987 50.977 7.975 50.954 8.992 50.93 C10.274 50.912 11.555 50.894 12.875 50.875 C14.151 50.852 15.427 50.829 16.742 50.805 C20 51 20 51 22 53 C22.767 60.226 21.86 67.026 20 74 C19.34 74 18.68 74 18 74 C18 74.99 18 75.98 18 77 C17.608 77.186 17.608 77.186 15.625 78.125 C12.12 80.628 12.218 82.535 11.523 86.625 C11.002 88.99 10.259 90.6 9.062 92.688 C6.007 98.368 5.194 104.724 4 111 C3.409 114.036 2.763 117 2 120 C1.67 120.165 1.67 120.165 0 121 C-0.734 117.663 -1.157 114.491 -1.281 111.078 C-1.318 110.144 -1.355 109.21 -1.393 108.248 C-1.428 107.259 -1.464 106.269 -1.5 105.25 C-1.956 93.245 -1.956 93.245 -2.32 88.551 C-4.532 59.597 -4.532 59.597 -1 49 C-0.795 46.184 -0.628 43.381 -0.5 40.562 C-0.431 39.043 -0.358 37.523 -0.281 36.004 C-0.251 35.332 -0.221 34.66 -0.189 33.967 C0.01 31.898 0.486 30.011 1 28 C1.367 22.25 0.417 16.848 -0.562 11.184 C-1.647 3.294 -1.647 3.294 0 0 Z " fill="#FEFEFE" transform="translate(136,218)"/>
<path d="M0 0 C0.66 0 1.32 0 2 0 C2 7.59 2 15.18 2 23 C-6.58 23 -15.16 23 -24 23 C-24 50.39 -24 77.78 -24 106 C-14.76 106 -5.52 106 4 106 C5 107 5 107 5.114 109.408 C5.108 110.451 5.103 111.493 5.098 112.566 C5.094 113.691 5.091 114.816 5.088 115.975 C5.08 117.159 5.071 118.343 5.062 119.562 C5.058 120.75 5.053 121.938 5.049 123.162 C5.037 126.108 5.021 129.054 5 132 C4.34 131.67 3.68 131.34 3 131 C3 123.41 3 115.82 3 108 C2.67 108.165 2.67 108.165 1 109 C-2.412 109.199 -5.818 109.346 -9.234 109.43 C-11.164 109.514 -13.085 109.748 -15 110 C-20.167 117.751 -18.117 130.882 -18.049 139.936 C-18.037 142.691 -18.03 145.446 -18.022 148.201 C-18.019 148.916 -18.017 149.63 -18.014 150.367 C-17.987 158.647 -18.038 166.927 -18.092 175.207 C-18.102 176.806 -18.112 178.405 -18.122 180.004 C-18.148 184.153 -18.175 188.303 -18.202 192.452 C-18.231 196.853 -18.258 201.255 -18.286 205.656 C-18.338 213.935 -18.392 222.215 -18.445 230.494 C-18.507 239.943 -18.567 249.392 -18.627 258.841 C-18.75 278.228 -18.874 297.614 -19 317 C-19.66 317.33 -20.32 317.66 -21 318 C-21 301.83 -21 285.66 -21 269 C-21.66 269 -22.32 269 -23 269 C-24.055 263.837 -24.129 258.903 -24.098 253.662 C-24.097 253.201 -24.097 253.201 -24.093 250.871 C-24.089 248.878 -24.083 246.886 -24.075 244.894 C-24.062 241.742 -24.056 238.59 -24.051 235.438 C-24.04 228.75 -24.02 222.063 -24 215.375 C-23.976 207.618 -23.956 199.86 -23.944 192.103 C-23.938 188.997 -23.925 185.89 -23.912 182.784 C-23.909 180.882 -23.905 178.981 -23.902 177.08 C-23.897 176.215 -23.892 175.351 -23.887 174.46 C-23.887 173.664 -23.887 172.868 -23.886 172.047 C-23.884 171.358 -23.882 170.669 -23.88 169.959 C-24 168 -24 168 -24.5 166.114 C-25.14 163.408 -25.123 160.91 -25.12 158.128 C-25.121 157.528 -25.121 157.528 -25.124 154.491 C-25.121 153.177 -25.117 151.864 -25.114 150.511 C-25.113 149.111 -25.113 147.712 -25.114 146.312 C-25.114 142.515 -25.108 138.718 -25.101 134.92 C-25.095 130.951 -25.095 126.982 -25.093 123.013 C-25.09 115.498 -25.082 107.983 -25.072 100.468 C-25.061 91.911 -25.055 83.355 -25.05 74.799 C-25.04 57.199 -25.022 39.6 -25 22 C-16.75 22 -8.5 22 0 22 C0 14.74 0 7.48 0 0 Z " fill="#1D6EE1" transform="translate(25,0)"/>
<path d="M0 0 C9.57 0 19.14 0 29 0 C28.67 0.66 28.34 1.32 28 2 C19.42 2 10.84 2 2 2 C2 10.25 2 18.5 2 27 C-7.9 27 -17.8 27 -28 27 C-28 35.91 -28 44.82 -28 54 C-39.22 54 -50.44 54 -62 54 C-61.938 66.375 -61.938 66.375 -61.91 70.275 C-61.907 71.285 -61.905 72.295 -61.902 73.336 C-61.897 74.373 -61.892 75.41 -61.886 76.478 C-62 79 -62 79 -63 81 C-73.56 81 -84.12 81 -95 81 C-94.895 118.131 -94.786 155.262 -94.669 192.393 C-94.655 196.774 -94.641 201.155 -94.628 205.536 C-94.625 206.408 -94.622 207.281 -94.619 208.179 C-94.575 222.312 -94.535 236.445 -94.495 250.579 C-94.455 265.074 -94.411 279.57 -94.363 294.066 C-94.334 303.015 -94.307 311.963 -94.285 320.912 C-94.269 327.044 -94.25 333.176 -94.227 339.308 C-94.215 342.848 -94.203 346.389 -94.197 349.93 C-94.189 353.764 -94.174 357.599 -94.158 361.434 C-94.157 362.558 -94.156 363.683 -94.155 364.841 C-94.153 365.354 -94.153 365.354 -94.139 367.948 C-94.136 368.833 -94.133 369.719 -94.131 370.631 C-94.006 372.887 -93.631 374.837 -93 377 C-94.32 377 -95.64 377 -97 377 C-97.151 342.936 -97.296 308.872 -97.433 274.807 C-97.45 270.771 -97.466 266.735 -97.482 262.699 C-97.484 262.298 -97.484 262.298 -97.492 260.265 C-97.545 247.315 -97.601 234.364 -97.659 221.414 C-97.718 208.092 -97.774 194.77 -97.825 181.448 C-97.857 173.25 -97.892 165.053 -97.931 156.855 C-97.958 151.207 -97.98 145.56 -98 139.913 C-98.011 136.671 -98.024 133.429 -98.042 130.187 C-98.132 113.092 -97.725 96.082 -97 79 C-86.11 79 -75.22 79 -64 79 C-64.062 66.063 -64.062 66.063 -64.09 61.977 C-64.093 60.924 -64.095 59.87 -64.098 58.785 C-64.103 57.701 -64.108 56.617 -64.114 55.5 C-64 53 -64 53 -63 52 C-60.479 51.912 -57.986 51.885 -55.465 51.902 C-55.088 51.903 -55.088 51.903 -53.182 51.907 C-50.767 51.912 -48.352 51.925 -45.938 51.938 C-44.304 51.943 -42.671 51.947 -41.037 51.951 C-37.025 51.961 -33.012 51.981 -29 52 C-29 43.42 -29 34.84 -29 26 C-19.43 26 -9.86 26 0 26 C0 17.42 0 8.84 0 0 Z " fill="#50A15E" transform="translate(618,105)"/>
<path d="M0 0 C9.9 0 19.8 0 30 0 C30 8.91 30 17.82 30 27 C39.9 27 49.8 27 60 27 C60 35.91 60 44.82 60 54 C59.67 54 59.34 54 59 54 C59 45.75 59 37.5 59 29 C49.43 29 39.86 29 30 29 C30 37.25 30 45.5 30 54 C20.43 54 10.86 54 1 54 C-0.331 51.338 -0.113 49.313 -0.098 46.336 C-0.095 45.326 -0.093 44.316 -0.09 43.275 C-0.081 41.988 -0.072 40.701 -0.062 39.375 C-0.042 35.291 -0.021 31.207 0 27 C9.24 27 18.48 27 28 27 C28.33 18.42 28.66 9.84 29 1 C19.43 1 9.86 1 0 1 C0 0.67 0 0.34 0 0 Z " fill="#E3DEDE" transform="translate(218,293)"/>
<path d="M0 0 C10.23 0 20.46 0 31 0 C31.33 7.92 31.66 15.84 32 24 C43.55 24.33 55.1 24.66 67 25 C67 33.91 67 42.82 67 52 C77.23 52 87.46 52 98 52 C97.67 150.34 97.34 248.68 97 350 C96.34 350 95.68 350 95 350 C95 252.65 95 155.3 95 55 C90.38 54.835 90.38 54.835 67 54 C65 52 65 52 64.773 49.478 C64.783 48.441 64.794 47.404 64.805 46.336 C64.81 45.326 64.815 44.316 64.82 43.275 C64.838 41.988 64.856 40.701 64.875 39.375 C64.916 35.291 64.957 31.208 65 27 C53.12 27 41.24 27 29 27 C29 18.75 29 10.5 29 2 C19.76 2 10.52 2 1 2 C0.67 1.34 0.34 0.68 0 0 Z " fill="#4A85D2" transform="translate(30,132)"/>
<path d="M0 0 C9.9 0 19.8 0 30 0 C30 9.24 30 18.48 30 28 C20.43 28 10.86 28 1 28 C1 37.57 1 47.14 1 57 C0.67 57 0.34 57 0 57 C0 47.43 0 37.86 0 28 C-9.57 28 -19.14 28 -29 28 C-29 27.67 -29 27.34 -29 27 C-19.43 27 -9.86 27 0 27 C0 18.09 0 9.18 0 0 Z " fill="#DEDEDE" transform="translate(188,347)"/>
<path d="M0 0 C0.66 0 1.32 0 2 0 C2 7.26 2 14.52 2 22 C2.66 22 3.32 22 4 22 C5.288 24.575 5.123 26.405 5.12 29.29 C5.121 29.851 5.121 29.851 5.124 32.689 C5.123 33.307 5.123 33.307 5.114 36.436 C5.114 37.734 5.114 39.031 5.114 40.368 C5.114 43.932 5.108 47.496 5.101 51.059 C5.095 54.782 5.095 58.504 5.093 62.226 C5.09 69.277 5.082 76.329 5.072 83.38 C5.061 91.406 5.055 99.433 5.05 107.459 C5.04 123.973 5.022 140.486 5 157 C4.01 157 3.02 157 2 157 C2 165.58 2 174.16 2 183 C1.67 183 1.34 183 1 183 C1 130.53 1 78.06 1 24 C-9.56 24 -20.12 24 -31 24 C-31 32.91 -31 41.82 -31 51 C-39.91 51 -48.82 51 -58 51 C-58.952 53.855 -59.19 55.909 -59.316 58.887 C-59.355 59.732 -59.393 60.577 -59.432 61.448 C-59.453 61.983 -59.453 61.983 -59.562 64.688 C-59.707 68.091 -59.851 71.494 -60 75 C-69.9 75 -79.8 75 -90 75 C-88 73 -88 73 -85.478 72.773 C-84.96 72.778 -84.96 72.778 -82.336 72.805 C-81.214 72.811 -80.093 72.818 -78.938 72.824 C-77.762 72.841 -76.586 72.858 -75.375 72.875 C-74.192 72.884 -73.008 72.893 -71.789 72.902 C-68.859 72.926 -65.93 72.959 -63 73 C-62.975 72.278 -62.95 71.556 -62.924 70.813 C-62.808 67.562 -62.686 64.313 -62.562 61.062 C-62.523 59.926 -62.484 58.79 -62.443 57.619 C-62.401 56.54 -62.36 55.46 -62.316 54.348 C-62.28 53.347 -62.243 52.347 -62.205 51.317 C-62 49 -62 49 -61 48 C-58.929 47.842 -56.853 47.749 -54.777 47.684 C-53.517 47.642 -52.257 47.6 -50.959 47.557 C-49.618 47.517 -48.278 47.477 -46.938 47.438 C-45.593 47.394 -44.249 47.351 -42.904 47.307 C-39.603 47.2 -36.302 47.1 -33 47 C-32.67 39.08 -32.34 31.16 -32 23 C-29.13 21.565 -26.665 21.888 -23.461 21.902 C-22.81 21.904 -22.81 21.904 -19.516 21.912 C-18.135 21.92 -16.755 21.929 -15.375 21.938 C-13.987 21.943 -12.599 21.947 -11.211 21.951 C-7.807 21.963 -4.404 21.981 -1 22 C-0.67 14.74 -0.34 7.48 0 0 Z " fill="#FCB418" transform="translate(521,0)"/>
<path d="M0 0 C9.57 0 19.14 0 29 0 C29 9.57 29 19.14 29 29 C19.43 29 9.86 29 0 29 C0 19.43 0 9.86 0 0 Z " fill="#DEDEDE" transform="translate(460,375)"/>
<path d="M0 0 C9.57 0 19.14 0 29 0 C29 8.58 29 17.16 29 26 C19.43 26 9.86 26 0 26 C0 17.42 0 8.84 0 0 Z " fill="#CC2012" transform="translate(98,157)"/>
<path d="M0 0 C10.56 0 21.12 0 32 0 C32.165 3.795 32.165 3.795 33 23 C22.11 23 11.22 23 0 23 C0 15.41 0 7.82 0 0 Z " fill="#C3170B" transform="translate(29,0)"/>
<path d="M0 0 C0.66 0 1.32 0 2 0 C2 7.26 2 14.52 2 22 C3.071 21.988 3.071 21.988 8.492 21.93 C10.564 21.914 12.636 21.902 14.708 21.89 C16.149 21.88 17.59 21.866 19.032 21.849 C21.102 21.825 23.172 21.814 25.242 21.805 C25.865 21.799 25.865 21.799 29.019 21.773 C32 22 32 22 34 24 C34.227 26.43 34.227 26.43 34.195 29.445 C34.189 30.522 34.182 31.598 34.176 32.707 C34.159 33.835 34.142 34.963 34.125 36.125 C34.116 37.261 34.107 38.396 34.098 39.566 C34.074 42.378 34.041 45.189 34 48 C34.843 47.995 35.686 47.99 36.554 47.984 C39.672 47.967 42.79 47.955 45.908 47.945 C47.259 47.94 48.61 47.933 49.962 47.925 C51.9 47.912 53.839 47.907 55.777 47.902 C56.361 47.9 56.361 47.9 59.316 47.886 C62 48 62 48 63 49 C63.157 50.706 63.251 52.417 63.316 54.129 C63.358 55.163 63.4 56.198 63.443 57.264 C63.483 58.352 63.522 59.441 63.562 60.562 C63.606 61.655 63.649 62.747 63.693 63.873 C63.8 66.582 63.902 69.291 64 72 C64.389 72.013 64.389 72.013 66.355 72.076 C69.862 72.192 73.368 72.314 76.875 72.438 C78.098 72.477 79.322 72.516 80.582 72.557 C81.749 72.599 82.915 72.64 84.117 72.684 C84.657 72.702 84.657 72.702 87.386 72.795 C90 73 90 73 92 74 C92.165 78.125 92.165 78.125 93 99 C101.91 99 110.82 99 120 99 C120.995 101.984 121.196 104.2 121.316 107.324 C121.358 108.352 121.4 109.38 121.443 110.439 C121.483 111.511 121.522 112.583 121.562 113.688 C121.606 114.771 121.649 115.854 121.693 116.971 C121.799 119.647 121.902 122.323 122 125 C122.389 124.997 122.389 124.997 124.355 124.984 C127.862 124.963 131.368 124.95 134.875 124.938 C135.487 124.933 135.487 124.933 138.582 124.912 C139.749 124.909 140.915 124.906 142.117 124.902 C142.657 124.9 142.657 124.9 145.386 124.886 C148 125 148 125 150 126 C150.33 134.91 150.66 143.82 151 153 C164.312 152.938 164.312 152.938 168.501 152.91 C169.59 152.907 170.679 152.905 171.801 152.902 C172.916 152.897 174.032 152.892 175.181 152.886 C178 153 178 153 181 154 C181.33 162.91 181.66 171.82 182 181 C187.61 181.165 187.61 181.165 216 182 C216 173.09 216 164.18 216 155 C216.33 155 216.66 155 217 155 C217 164.24 217 173.48 217 183 C204.79 183 192.58 183 180 183 C180 173.76 180 164.52 180 155 C169.44 155 158.88 155 148 155 C148 145.76 148 136.52 148 127 C138.43 127 128.86 127 119 127 C119 118.09 119 109.18 119 100 C109.43 100 99.86 100 90 100 C90 91.75 90 83.5 90 75 C80.43 75 70.86 75 61 75 C61 66.75 61 58.5 61 50 C58.918 50.012 56.836 50.023 54.691 50.035 C52.683 50.042 50.674 50.049 48.665 50.055 C47.265 50.06 45.865 50.067 44.466 50.075 C42.458 50.088 40.449 50.093 38.441 50.098 C37.232 50.103 36.022 50.108 34.776 50.114 C32 50 32 50 31 49 C30.913 47.219 30.893 45.435 30.902 43.652 C30.905 42.68 30.907 41.708 30.91 40.707 C30.919 39.463 30.928 38.219 30.938 36.938 C30.958 32.998 30.979 29.059 31 25 C20.77 25 10.54 25 0 25 C0 16.75 0 8.5 0 0 Z " fill="#F3CAC7" transform="translate(126,0)"/>
<path d="M0 0 C10.23 0 20.46 0 31 0 C31 7.59 31 15.18 31 23 C20.77 23 10.54 23 0 23 C0 15.41 0 7.82 0 0 Z " fill="#FAA904" transform="translate(588,0)"/>
<path d="M0 0 C1 1 1 1 1.114 3.133 C1.108 4.049 1.103 4.966 1.098 5.91 C1.095 6.801 1.093 7.692 1.09 8.61 C1.081 9.749 1.072 10.889 1.062 12.062 C1.042 15.672 1.021 19.281 1 23 C-8.9 23 -18.8 23 -29 23 C-29 15.74 -29 8.48 -29 1 C-27.35 0.918 -27.35 0.918 -19 0.5 C-18.488 0.474 -18.488 0.474 -15.898 0.342 C-10.593 0.083 -5.311 -0.148 0 0 Z " fill="#3E944C" transform="translate(616,459)"/>
<path d="M0 0 C9.9 0 19.8 0 30 0 C30 7.26 30 14.52 30 22 C20.1 22 10.2 22 0 22 C0 14.74 0 7.48 0 0 Z " fill="#1A6BE2" transform="translate(31,460)"/>
<path d="M0 0 C0.33 0 0.66 0 1 0 C1 63.36 1 126.72 1 192 C10.9 192 20.8 192 31 192 C31 182.43 31 172.86 31 163 C31.33 163 31.66 163 32 163 C32 172.57 32 182.14 32 192 C41.57 192 51.14 192 61 192 C61 192.33 61 192.66 61 193 C51.43 193 41.86 193 32 193 C32 211.15 32 229.3 32 248 C21.77 248 11.54 248 1 248 C1 255.26 1 262.52 1 270 C0.67 270 0.34 270 0 270 C0 180.9 0 91.8 0 0 Z M3 193 C3 202.9 3 212.8 3 223 C3.66 223.33 4.32 223.66 5 224 C5.029 227.083 5.047 230.167 5.062 233.25 C5.071 234.123 5.079 234.995 5.088 235.895 C5.091 236.739 5.094 237.583 5.098 238.453 C5.103 239.228 5.108 240.003 5.114 240.802 C5 243 5 243 4 247 C12.91 247 21.82 247 31 247 C31 229.18 31 211.36 31 193 C21.76 193 12.52 193 3 193 Z " fill="#B8CEEE" transform="translate(127,212)"/>
<path d="M0 0 C0.99 0 1.98 0 3 0 C2.988 1.169 2.977 2.338 2.965 3.543 C2.955 5.091 2.946 6.639 2.938 8.188 C2.929 8.956 2.921 9.725 2.912 10.518 C2.895 14.485 3.014 18.126 4 22 C6.5 22.17 9 22.336 11.5 22.5 C11.848 22.524 11.848 22.524 13.609 22.645 C17.227 22.879 20.781 22.998 24.406 22.906 C28 23 28 23 30 25 C30.188 27.862 30.252 30.626 30.227 33.489 C30.227 34.367 30.228 35.245 30.228 36.15 C30.227 39.061 30.211 41.972 30.195 44.883 C30.192 46.898 30.189 48.913 30.187 50.928 C30.179 56.238 30.159 61.548 30.137 66.858 C30.117 72.274 30.108 77.69 30.098 83.105 C30.076 93.737 30.042 104.369 30 115 C29.67 115 29.34 115 29 115 C29 111.7 29 108.4 29 105 C19.1 105 9.2 105 -1 105 C-0.67 104.01 -0.34 103.02 0 102 C8.25 102 16.5 102 25 102 C25 76.92 25 51.84 25 26 C21.7 26 18.4 26 15 26 C15 26.66 15 27.32 15 28 C9.72 28 4.44 28 -1 28 C-1 27.34 -1 26.68 -1 26 C-0.01 26 0.98 26 2 26 C1.34 25.01 0.68 24.02 0 23 C-0.227 20.548 -0.227 20.548 -0.195 17.676 C-0.189 16.648 -0.182 15.62 -0.176 14.561 C-0.159 13.489 -0.142 12.417 -0.125 11.312 C-0.116 10.229 -0.107 9.146 -0.098 8.029 C-0.074 5.353 -0.041 2.676 0 0 Z " fill="#F0C647" transform="translate(619,0)"/>
<path d="M0 0 C9.57 0 19.14 0 29 0 C29 8.91 29 17.82 29 27 C38.57 27 48.14 27 58 27 C58 36.24 58 45.48 58 55 C56.68 53.68 55.36 52.36 54 51 C53.567 51.825 53.134 52.65 52.688 53.5 C52.131 54.325 51.574 55.15 51 56 C50.01 56 49.02 56 48 56 C48 52 48 52 49.312 50.25 C51 49 51 49 54 49 C53.835 47.68 53.835 47.68 53 41 C52.01 42.98 51.02 44.96 50 47 C49.01 46.835 49.01 46.835 44 46 C44.33 44.68 44.66 43.36 45 42 C45.99 42.33 46.98 42.66 48 43 C48 42.01 48 41.02 48 40 C48.66 40 49.32 40 50 40 C50 38.68 50 37.36 50 36 C49.67 36.165 49.67 36.165 48 37 C41.815 37.503 34.79 37.467 29 35 C28 32 28 32 29 29 C28.34 28.67 27.68 28.34 27 28 C27 19.42 27 10.84 27 2 C18.09 2 9.18 2 0 2 C0 1.34 0 0.68 0 0 Z " fill="#E54333" transform="translate(216,100)"/>
<path d="M0 0 C10.56 0 21.12 0 32 0 C32 52.8 32 105.6 32 160 C31.34 160 30.68 160 30 160 C30 107.53 30 55.06 30 1 C23.4 1 16.8 1 10 1 C10 2.65 10 4.3 10 6 C8.02 6.33 6.04 6.66 4 7 C4.023 7.88 4.046 8.761 4.07 9.668 C4.088 10.829 4.106 11.991 4.125 13.188 C4.148 14.336 4.171 15.485 4.195 16.668 C4.005 19.917 3.394 22.087 2 25 C2.66 25 3.32 25 4 25 C4 25.99 4 26.98 4 28 C3.34 28 2.68 28 2 28 C1.67 28.66 1.34 29.32 1 30 C0 29 0 29 -0.114 26.224 C-0.108 25.015 -0.103 23.805 -0.098 22.559 C-0.095 21.384 -0.093 20.208 -0.09 18.998 C-0.081 17.493 -0.072 15.988 -0.062 14.438 C-0.042 9.673 -0.021 4.909 0 0 Z " fill="#E05925" transform="translate(490,24)"/>
<path d="M0 0 C8.58 0 17.16 0 26 0 C25.67 0.99 25.34 1.98 25 3 C17.74 3 10.48 3 3 3 C2.975 5.221 2.95 7.441 2.924 9.729 C2.841 17.066 2.752 24.402 2.661 31.738 C2.605 36.186 2.552 40.634 2.503 45.082 C2.455 49.374 2.403 53.667 2.347 57.959 C2.327 59.597 2.308 61.235 2.291 62.873 C2.267 65.166 2.237 67.459 2.205 69.753 C2.19 71.059 2.174 72.364 2.158 73.71 C2 77 2 77 1 81 C10.24 81 19.48 81 29 81 C30.331 83.662 30.113 85.687 30.098 88.664 C30.095 89.674 30.093 90.684 30.09 91.725 C30.081 93.012 30.072 94.299 30.062 95.625 C30.042 99.709 30.021 103.793 30 108 C40.56 108 51.12 108 62 108 C62 115.92 62 123.84 62 132 C64.287 131.977 66.574 131.954 68.93 131.93 C71.14 131.914 73.351 131.902 75.562 131.89 C77.1 131.88 78.639 131.866 80.177 131.849 C82.386 131.825 84.595 131.814 86.805 131.805 C87.494 131.794 88.184 131.784 88.895 131.773 C90.598 131.773 92.301 131.878 94 132 C94.66 132.66 95.32 133.32 96 134 C91.034 134.025 86.068 134.043 81.101 134.055 C79.411 134.06 77.72 134.067 76.029 134.075 C73.604 134.088 71.179 134.093 68.754 134.098 C68.374 134.1 68.374 134.1 66.45 134.113 C64.633 134.113 62.816 134.062 61 134 C60 133 60 133 59.886 130.683 C59.892 129.683 59.897 128.683 59.902 127.652 C59.905 126.68 59.907 125.708 59.91 124.707 C59.919 123.463 59.928 122.219 59.938 120.938 C59.958 116.998 59.979 113.059 60 109 C49.77 109 39.54 109 29 109 C28.835 104.875 28.835 104.875 28 84 C23.38 83.835 23.38 83.835 0 83 C0 55.61 0 28.22 0 0 Z " fill="#BE322B" transform="translate(1,23)"/>
<path d="M0 0 C0.66 0 1.32 0 2 0 C2 7.59 2 15.18 2 23 C-6.58 23 -15.16 23 -24 23 C-24 50.39 -24 77.78 -24 106 C-14.76 106 -5.52 106 4 106 C5 107 5 107 5.114 109.408 C5.108 110.451 5.103 111.493 5.098 112.566 C5.094 113.691 5.091 114.816 5.088 115.975 C5.08 117.159 5.071 118.343 5.062 119.562 C5.058 120.75 5.053 121.938 5.049 123.162 C5.037 126.108 5.021 129.054 5 132 C4.34 131.67 3.68 131.34 3 131 C3 123.41 3 115.82 3 108 C-5.25 108 -13.5 108 -22 108 C-22 127.14 -22 146.28 -22 166 C-22.66 166.33 -23.32 166.66 -24 167 C-25.059 163.823 -25.123 161.586 -25.12 158.248 C-25.122 157.049 -25.123 155.85 -25.124 154.615 C-25.121 153.298 -25.117 151.981 -25.114 150.624 C-25.113 149.225 -25.113 147.825 -25.114 146.426 C-25.114 142.625 -25.108 138.823 -25.101 135.022 C-25.095 131.05 -25.095 127.078 -25.093 123.106 C-25.09 115.584 -25.082 108.062 -25.072 100.54 C-25.061 91.976 -25.055 83.413 -25.05 74.849 C-25.04 57.233 -25.022 39.616 -25 22 C-16.75 22 -8.5 22 0 22 C0 14.74 0 7.48 0 0 Z " fill="#A19BBE" transform="translate(25,0)"/>
<path d="M0 0 C0.33 0 0.66 0 1 0 C1 63.03 1 126.06 1 191 C-8.9 191 -18.8 191 -29 191 C-29 208.82 -29 226.64 -29 245 C-29.33 245 -29.66 245 -30 245 C-30 227.18 -30 209.36 -30 191 C-44.437 191.062 -44.437 191.062 -48.998 191.09 C-50.173 191.093 -51.348 191.095 -52.559 191.098 C-53.768 191.103 -54.978 191.108 -56.224 191.114 C-59 191 -59 191 -60 190 C-60.088 187.854 -60.107 185.706 -60.098 183.559 C-60.094 182.253 -60.091 180.948 -60.088 179.604 C-60.08 178.215 -60.071 176.826 -60.062 175.438 C-60.057 174.045 -60.053 172.652 -60.049 171.26 C-60.037 167.84 -60.019 164.42 -60 161 C-69.24 161 -78.48 161 -88 161 C-88 160.67 -88 160.34 -88 160 C-78.76 160 -69.52 160 -60 160 C-59.67 159.34 -59.34 158.68 -59 158 C-59 158.66 -59 159.32 -59 160 C-49.1 160 -39.2 160 -29 160 C-29 169.9 -29 179.8 -29 190 C-19.43 190 -9.86 190 0 190 C0 127.3 0 64.6 0 0 Z M-59 161 C-59 170.57 -59 180.14 -59 190 C-49.43 190 -39.86 190 -30 190 C-30 180.43 -30 170.86 -30 161 C-39.57 161 -49.14 161 -59 161 Z " fill="#E8EFE9" transform="translate(519,214)"/>
<path d="M0 0 C10.23 0 20.46 0 31 0 C30.67 0.66 30.34 1.32 30 2 C28.68 2 27.36 2 26 2 C26.165 2.66 26.165 2.66 27 6 C22.25 7 22.25 7 20 7 C19.34 7.99 18.68 8.98 18 10 C16.68 10 15.36 10 14 10 C14 9.34 14 8.68 14 8 C12.68 8 11.36 8 10 8 C9.835 7.34 9.835 7.34 9 4 C6.69 3.67 4.38 3.34 2 3 C2.005 3.752 2.01 4.504 2.016 5.279 C2.037 8.665 2.05 12.051 2.062 15.438 C2.071 16.622 2.079 17.806 2.088 19.025 C2.091 20.15 2.094 21.275 2.098 22.434 C2.103 23.476 2.108 24.518 2.114 25.592 C2 28 2 28 1 29 C-1.219 29.088 -3.44 29.107 -5.66 29.098 C-5.992 29.097 -5.992 29.097 -7.674 29.093 C-9.803 29.088 -11.933 29.075 -14.062 29.062 C-15.503 29.057 -16.944 29.053 -18.385 29.049 C-21.923 29.038 -25.462 29.021 -29 29 C-28.997 29.373 -28.997 29.373 -28.984 31.263 C-28.963 34.634 -28.95 38.004 -28.938 41.375 C-28.929 42.551 -28.921 43.726 -28.912 44.938 C-28.91 45.498 -28.91 45.498 -28.902 48.336 C-28.9 48.854 -28.9 48.854 -28.886 51.478 C-29 54 -29 54 -30 56 C-39.24 56.33 -48.48 56.66 -58 57 C-58.33 64.92 -58.66 72.84 -59 81 C-59.33 81 -59.66 81 -60 81 C-60 72.09 -60 63.18 -60 54 C-50.43 54 -40.86 54 -31 54 C-31 45.09 -31 36.18 -31 27 C-20.77 27 -10.54 27 0 27 C0 18.09 0 9.18 0 0 Z " fill="#F6E9E4" transform="translate(490,212)"/>
<path d="M0 0 C0.66 0 1.32 0 2 0 C2.33 8.25 2.66 16.5 3 25 C4.155 24.835 4.155 24.835 10 24 C11.71 23.868 13.423 23.76 15.137 23.684 C15.59 23.663 15.59 23.663 17.885 23.557 C18.347 23.537 18.347 23.537 20.688 23.438 C21.624 23.394 22.561 23.351 23.525 23.307 C27.358 23.134 31.163 23 35 23 C36.461 25.647 37 26.894 37 30 C36.01 30 35.02 30 34 30 C34 29.34 34 28.68 34 28 C33.34 28 32.68 28 32 28 C32.012 29.23 32.023 30.46 32.035 31.727 C32.045 33.359 32.054 34.992 32.062 36.625 C32.071 37.433 32.079 38.241 32.088 39.074 C32.091 39.867 32.094 40.66 32.098 41.477 C32.103 42.199 32.108 42.922 32.114 43.667 C31.976 46.496 31.506 49.215 31 52 C31.838 51.995 32.675 51.99 33.539 51.984 C36.643 51.967 39.748 51.955 42.853 51.945 C44.859 51.938 46.865 51.925 48.871 51.912 C49.5 51.91 49.5 51.91 52.68 51.902 C53.261 51.9 53.261 51.9 56.203 51.886 C59 52 59 52 61 53 C61 61.58 61 70.16 61 79 C70.24 79 79.48 79 89 79 C89 79.66 89 80.32 89 81 C79.1 81 69.2 81 59 81 C59 72.09 59 63.18 59 54 C49.1 54 39.2 54 29 54 C29 45.09 29 36.18 29 27 C19.43 27 9.86 27 0 27 C0 18.09 0 9.18 0 0 Z " fill="#D84639" transform="translate(189,239)"/>
<path d="M0 0 C9.57 0 19.14 0 29 0 C28.67 0.66 28.34 1.32 28 2 C19.42 2 10.84 2 2 2 C2 10.25 2 18.5 2 27 C-7.9 27 -17.8 27 -28 27 C-28 35.91 -28 44.82 -28 54 C-39.22 54 -50.44 54 -62 54 C-61.938 66.375 -61.938 66.375 -61.91 70.275 C-61.907 71.285 -61.905 72.295 -61.902 73.336 C-61.897 74.373 -61.892 75.41 -61.886 76.478 C-62 79 -62 79 -63 81 C-73.56 81 -84.12 81 -95 81 C-95 89.25 -95 97.5 -95 106 C-95.99 106 -96.98 106 -98 106 C-97.67 97.09 -97.34 88.18 -97 79 C-86.11 79 -75.22 79 -64 79 C-64.062 66.063 -64.062 66.063 -64.09 61.977 C-64.093 60.924 -64.095 59.87 -64.098 58.785 C-64.103 57.701 -64.108 56.617 -64.114 55.5 C-64 53 -64 53 -63 52 C-60.479 51.912 -57.986 51.885 -55.465 51.902 C-55.088 51.903 -55.088 51.903 -53.182 51.907 C-50.767 51.912 -48.352 51.925 -45.938 51.938 C-44.304 51.943 -42.671 51.947 -41.037 51.951 C-37.025 51.961 -33.012 51.981 -29 52 C-29 43.42 -29 34.84 -29 26 C-19.43 26 -9.86 26 0 26 C0 17.42 0 8.84 0 0 Z " fill="#6AA044" transform="translate(618,105)"/>
<path d="M0 0 C0 8.58 0 17.16 0 26 C-9.9 26 -19.8 26 -30 26 C-30 34.91 -30 43.82 -30 53 C-39.9 53 -49.8 53 -60 53 C-60 52.34 -60 51.68 -60 51 C-55.875 50.835 -55.875 50.835 -35 50 C-34.835 47.979 -34.67 45.957 -34.5 43.875 C-34.454 43.307 -34.454 43.307 -34.219 40.43 C-34.017 37.274 -33.962 34.161 -34 31 C-34.66 31 -35.32 31 -36 31 C-36 29.35 -36 27.7 -36 26 C-36.66 25.67 -37.32 25.34 -38 25 C-38 24.34 -38 23.68 -38 23 C-36.02 23 -34.04 23 -32 23 C-32 23.66 -32 24.32 -32 25 C-31.34 25 -30.68 25 -30 25 C-30 24.34 -30 23.68 -30 23 C-21.42 23 -12.84 23 -4 23 C-4.124 20.731 -4.248 18.462 -4.375 16.125 C-4.41 15.487 -4.41 15.487 -4.586 12.258 C-5 9 -5 9 -7 7 C-6.25 4.062 -6.25 4.062 -5 1 C-3.142 0.212 -1.982 0 0 0 Z M-6 9 C-5.67 9.99 -5.34 10.98 -5 12 C-5.33 12.165 -5.33 12.165 -7 13 C-6.67 11.68 -6.34 10.36 -6 9 Z " fill="#DC4F43" transform="translate(400,294)"/>
<path d="M0 0 C0.33 0 0.66 0 1 0 C2.34 21.466 2.118 42.948 2.069 64.446 C2.058 69.481 2.054 74.517 2.049 79.553 C2.038 89.369 2.021 99.184 2 109 C1.67 109 1.34 109 1 109 C1 80.95 1 52.9 1 24 C-9.56 24 -20.12 24 -31 24 C-31 32.91 -31 41.82 -31 51 C-39.91 51 -48.82 51 -58 51 C-58.952 53.855 -59.19 55.909 -59.316 58.887 C-59.355 59.732 -59.393 60.577 -59.432 61.448 C-59.453 61.983 -59.453 61.983 -59.562 64.688 C-59.707 68.091 -59.851 71.494 -60 75 C-69.9 75 -79.8 75 -90 75 C-88 73 -88 73 -85.478 72.773 C-84.96 72.778 -84.96 72.778 -82.336 72.805 C-81.214 72.811 -80.093 72.818 -78.938 72.824 C-77.762 72.841 -76.586 72.858 -75.375 72.875 C-74.192 72.884 -73.008 72.893 -71.789 72.902 C-68.859 72.926 -65.93 72.959 -63 73 C-62.975 72.278 -62.95 71.556 -62.924 70.813 C-62.808 67.562 -62.686 64.313 -62.562 61.062 C-62.523 59.926 -62.484 58.79 -62.443 57.619 C-62.401 56.54 -62.36 55.46 -62.316 54.348 C-62.28 53.347 -62.243 52.347 -62.205 51.317 C-62 49 -62 49 -61 48 C-58.929 47.842 -56.853 47.749 -54.777 47.684 C-53.517 47.642 -52.257 47.6 -50.959 47.557 C-49.618 47.517 -48.278 47.477 -46.938 47.438 C-45.593 47.394 -44.249 47.351 -42.904 47.307 C-39.603 47.2 -36.302 47.1 -33 47 C-32.67 39.08 -32.34 31.16 -32 23 C-29.13 21.565 -26.665 21.888 -23.461 21.902 C-22.81 21.904 -22.81 21.904 -19.516 21.912 C-18.135 21.92 -16.755 21.929 -15.375 21.938 C-13.987 21.943 -12.599 21.947 -11.211 21.951 C-7.807 21.963 -4.404 21.981 -1 22 C-0.67 14.74 -0.34 7.48 0 0 Z " fill="#F8C484" transform="translate(521,0)"/>
<path d="M0 0 C0.66 0 1.32 0 2 0 C2.047 13.799 2.082 27.598 2.104 41.397 C2.114 47.809 2.128 54.221 2.151 60.634 C2.256 90.488 2.034 120.206 0 150 C-0.33 150 -0.66 150 -1 150 C-1.024 134.429 -1.041 118.858 -1.052 103.287 C-1.057 96.054 -1.064 88.821 -1.075 81.588 C-1.086 75.269 -1.092 68.95 -1.094 62.631 C-1.095 59.299 -1.099 55.966 -1.106 52.634 C-1.141 35.065 -0.788 17.551 0 0 Z " fill="#377ADC" transform="translate(1,270)"/>
<path d="M0 0 C10.23 0 20.46 0 31 0 C31 8.91 31 17.82 31 27 C40.9 27 50.8 27 61 27 C61 35.91 61 44.82 61 54 C70.57 54 80.14 54 90 54 C90 62.91 90 71.82 90 81 C89.67 81 89.34 81 89 81 C89 72.75 89 64.5 89 56 C79.43 56 69.86 56 60 56 C60 46.76 60 37.52 60 28 C49.44 28 38.88 28 28 28 C27.67 22.72 27.34 17.44 27 12 C26.67 17.28 26.34 22.56 26 28 C25.34 28 24.68 28 24 28 C22.826 20.662 22.906 13.418 23 6 C23.66 6 24.32 6 25 6 C25 5.01 25 4.02 25 3 C17.08 2.67 9.16 2.34 1 2 C0.67 1.34 0.34 0.68 0 0 Z " fill="#F5D3CD" transform="translate(128,212)"/>
<path d="M0 0 C10.23 0 20.46 0 31 0 C31.33 7.92 31.66 15.84 32 24 C43.55 24.33 55.1 24.66 67 25 C67 33.91 67 42.82 67 52 C77.23 52 87.46 52 98 52 C98 61.24 98 70.48 98 80 C97.34 79.67 96.68 79.34 96 79 C95.67 71.08 95.34 63.16 95 55 C93.002 54.951 91.004 54.902 88.945 54.852 C87.013 54.796 85.08 54.74 83.147 54.683 C81.141 54.625 79.135 54.578 77.129 54.531 C75.872 54.493 74.615 54.454 73.32 54.414 C72.739 54.398 72.739 54.398 69.797 54.319 C67 54 67 54 65 52 C64.773 49.478 64.773 49.478 64.805 46.336 C64.81 45.326 64.815 44.316 64.82 43.275 C64.838 41.988 64.856 40.701 64.875 39.375 C64.916 35.291 64.957 31.208 65 27 C53.12 27 41.24 27 29 27 C29 18.75 29 10.5 29 2 C19.76 2 10.52 2 1 2 C0.67 1.34 0.34 0.68 0 0 Z " fill="#7A75AA" transform="translate(30,132)"/>
<path d="M0 0 C0.33 0 0.66 0 1 0 C1 8.91 1 17.82 1 27 C-9.23 27 -19.46 27 -30 27 C-30 35.91 -30 44.82 -30 54 C-39.57 54 -49.14 54 -59 54 C-59 62.91 -59 71.82 -59 81 C-68.9 81 -78.8 81 -89 81 C-88.67 80.01 -88.34 79.02 -88 78 C-79.42 78 -70.84 78 -62 78 C-62 69.75 -62 61.5 -62 53 C-57.839 50.92 -56.404 50.804 -51.922 51.023 C-50.762 51.075 -49.602 51.127 -48.406 51.18 C-47.803 51.212 -47.803 51.212 -44.75 51.375 C-44.139 51.403 -44.139 51.403 -41.047 51.547 C-38.031 51.688 -35.015 51.84 -32 52 C-32.005 51.355 -32.01 50.709 -32.016 50.044 C-32.037 47.113 -32.05 44.181 -32.062 41.25 C-32.071 40.234 -32.079 39.218 -32.088 38.172 C-32.091 37.192 -32.094 36.213 -32.098 35.203 C-32.103 34.302 -32.108 33.402 -32.114 32.474 C-32 30 -32 30 -31 26 C-20.77 26 -10.54 26 0 26 C0 17.42 0 8.84 0 0 Z " fill="#D4574E" transform="translate(489,212)"/>
<path d="M0 0 C0.33 0 0.66 0 1 0 C1.33 8.25 1.66 16.5 2 25 C10.91 25 19.82 25 29 25 C29.995 27.984 30.196 30.2 30.316 33.324 C30.358 34.352 30.4 35.38 30.443 36.439 C30.483 37.511 30.522 38.583 30.562 39.688 C30.606 40.771 30.649 41.854 30.693 42.971 C30.799 45.647 30.902 48.323 31 51 C31.389 50.997 31.389 50.997 33.355 50.984 C36.862 50.963 40.368 50.95 43.875 50.938 C44.487 50.933 44.487 50.933 47.582 50.912 C48.165 50.91 48.165 50.91 51.117 50.902 C51.657 50.9 51.657 50.9 54.386 50.886 C57 51 57 51 59 52 C59.33 60.91 59.66 69.82 60 79 C73.312 78.938 73.312 78.938 77.501 78.91 C78.59 78.907 79.679 78.905 80.801 78.902 C81.359 78.9 81.359 78.9 84.181 78.886 C87 79 87 79 90 80 C90.33 88.91 90.66 97.82 91 107 C102.22 107.33 113.44 107.66 125 108 C125 99.09 125 90.18 125 81 C125.33 81 125.66 81 126 81 C126 90.24 126 99.48 126 109 C113.79 109 101.58 109 89 109 C89 99.76 89 90.52 89 81 C78.44 81 67.88 81 57 81 C57 71.76 57 62.52 57 53 C47.43 53 37.86 53 28 53 C28 44.09 28 35.18 28 26 C18.76 26 9.52 26 0 26 C0 17.42 0 8.84 0 0 Z " fill="#F7D9D6" transform="translate(217,74)"/>
<path d="M0 0 C0.33 0 0.66 0 1 0 C1 8.58 1 17.16 1 26 C-8.57 26 -18.14 26 -28 26 C-28 34.58 -28 43.16 -28 52 C-39.22 52.33 -50.44 52.66 -62 53 C-62.33 61.58 -62.66 70.16 -63 79 C-73.56 79 -84.12 79 -95 79 C-95 78.67 -95 78.34 -95 78 C-84.77 78 -74.54 78 -64 78 C-64.062 65.062 -64.062 65.062 -64.09 60.977 C-64.091 60.45 -64.091 60.45 -64.098 57.785 C-64.1 57.243 -64.1 57.243 -64.114 54.5 C-64 52 -64 52 -63 51 C-63.66 50.34 -64.32 49.68 -65 49 C-65 48.01 -65 47.02 -65 46 C-62 46 -62 46 -60.22 46.974 C-57.249 48.347 -54.749 48.325 -51.484 48.414 C-50.234 48.453 -48.984 48.491 -47.695 48.531 C-46.393 48.562 -45.091 48.593 -43.75 48.625 C-42.433 48.664 -41.115 48.702 -39.758 48.742 C-36.505 48.836 -33.253 48.919 -30 49 C-30.33 41.74 -30.66 34.48 -31 27 C-31.66 26.67 -32.32 26.34 -33 26 C-33 25.01 -33 24.02 -33 23 C-27.555 23.165 -27.555 23.165 0 24 C0 16.08 0 8.16 0 0 Z " fill="#D7B81F" transform="translate(617,105)"/>
<path d="M0 0 C0.33 0 0.66 0 1 0 C1 8.25 1 16.5 1 25 C3.226 24.988 5.452 24.977 7.746 24.965 C9.894 24.957 12.042 24.951 14.19 24.945 C15.686 24.94 17.183 24.933 18.68 24.925 C20.827 24.912 22.974 24.907 25.121 24.902 C25.768 24.9 25.768 24.9 29.041 24.886 C32 25 32 25 33 26 C33.449 29.059 33.817 32.117 34.162 35.189 C34.667 39.346 35.542 43.076 37 47 C36.01 47.33 35.02 47.66 34 48 C33.67 49.32 33.34 50.64 33 52 C41.91 52 50.82 52 60 52 C59.938 42.313 59.938 42.313 59.91 39.286 C59.907 38.487 59.905 37.687 59.902 36.863 C59.897 36.052 59.892 35.24 59.886 34.404 C60.007 31.851 60.44 29.49 61 27 C61.33 27 61.66 27 62 27 C62 36.24 62 45.48 62 55 C51.77 55 41.54 55 31 55 C31 45.76 31 36.52 31 27 C20.77 27 10.54 27 0 27 C0 18.09 0 9.18 0 0 Z " fill="#D55E53" transform="translate(278,320)"/>
<path d="M0 0 C0.33 0 0.66 0 1 0 C1.806 23.342 2.139 46.645 2 70 C1.01 70.33 0.02 70.66 -1 71 C-0.67 71.99 -0.34 72.98 0 74 C0.99 73.67 1.98 73.34 3 73 C3.165 72.505 3.165 72.505 4 70 C5.65 70.33 7.3 70.66 9 71 C8.835 71.495 8.835 71.495 8 74 C7.34 74 6.68 74 6 74 C6 74.66 6 75.32 6 76 C5.01 76.165 5.01 76.165 0 77 C-0.33 84.59 -0.66 92.18 -1 100 C-1.66 100 -2.32 100 -3 100 C-3 93.07 -3 86.14 -3 79 C-4.005 79.006 -4.005 79.006 -9.09 79.035 C-11.029 79.042 -12.969 79.049 -14.908 79.055 C-16.259 79.06 -17.61 79.067 -18.962 79.075 C-20.9 79.088 -22.839 79.093 -24.777 79.098 C-25.361 79.1 -25.361 79.1 -28.316 79.114 C-31 79 -31 79 -32 78 C-32.087 76.511 -32.107 75.019 -32.098 73.527 C-32.094 72.628 -32.091 71.729 -32.088 70.803 C-32.08 69.857 -32.071 68.912 -32.062 67.938 C-32.058 66.988 -32.053 66.039 -32.049 65.061 C-32.037 62.707 -32.021 60.354 -32 58 C-31.67 58 -31.34 58 -31 58 C-31 63.94 -31 69.88 -31 76 C-21.43 76 -11.86 76 -2 76 C-2 74.02 -2 72.04 -2 70 C-1.67 69.67 -1.34 69.34 -1 69 C-0.876 66.853 -0.822 64.703 -0.795 62.552 C-0.79 62.216 -0.79 62.216 -0.765 60.513 C-0.733 58.278 -0.708 56.043 -0.684 53.809 C-0.663 52.263 -0.642 50.717 -0.621 49.172 C-0.565 45.096 -0.516 41.021 -0.468 36.946 C-0.418 32.79 -0.362 28.634 -0.307 24.479 C-0.199 16.319 -0.098 8.16 0 0 Z " fill="#498AE6" transform="translate(32,382)"/>
<path d="M0 0 C10.56 0 21.12 0 32 0 C32 9.24 32 18.48 32 28 C31.01 28 30.02 28 29 28 C28.835 24.865 28.835 24.865 28 9 C25 9 25 9 23 10 C23.021 11.299 23.041 12.599 23.062 13.938 C23.084 15.292 23.071 16.648 23 18 C22 19 22 19 18.938 19.062 C17.968 19.042 16.999 19.021 16 19 C15.919 17.084 15.861 15.167 15.812 13.25 C15.778 12.183 15.743 11.115 15.707 10.016 C16.029 6.7 16.771 5.41 19 3 C18.131 3.012 17.262 3.023 16.367 3.035 C15.215 3.044 14.062 3.053 12.875 3.062 C11.738 3.074 10.601 3.086 9.43 3.098 C6.187 3.005 3.181 2.614 0 2 C0 1.34 0 0.68 0 0 Z " fill="#E64233" transform="translate(274,155)"/>
<path d="M0 0 C10.23 0 20.46 0 31 0 C31 9.24 31 18.48 31 28 C40.9 28 50.8 28 61 28 C61 28.66 61 29.32 61 30 C58.69 30 56.38 30 54 30 C54 30.99 54 31.98 54 33 C53.42 32.99 52.841 32.979 52.243 32.968 C49.6 32.927 46.956 32.901 44.312 32.875 C43.4 32.858 42.488 32.841 41.549 32.824 C40.663 32.818 39.776 32.811 38.863 32.805 C38.052 32.794 37.24 32.784 36.404 32.773 C34 33 34 33 29 35 C29 24.11 29 13.22 29 2 C19.43 2.33 9.86 2.66 0 3 C0 2.01 0 1.02 0 0 Z " fill="#F5F0EB" transform="translate(278,347)"/>
<path d="M0 0 C0.33 0 0.66 0 1 0 C1 8.58 1 17.16 1 26 C11.23 26 21.46 26 32 26 C33.125 33.875 33.125 33.875 33.316 37.84 C33.335 38.217 33.335 38.217 33.432 40.125 C33.475 41.053 33.518 41.981 33.562 42.938 C33.707 45.928 33.851 48.919 34 52 C41.59 52.33 49.18 52.66 57 53 C57 52.34 57 51.68 57 51 C58.32 51 59.64 51 61 51 C61 51.99 61 52.98 61 54 C61.66 54 62.32 54 63 54 C63.33 62.58 63.66 71.16 64 80 C68.455 80.165 68.455 80.165 91 81 C91 81.33 91 81.66 91 82 C81.43 82 71.86 82 62 82 C62 73.09 62 64.18 62 55 C51.77 55 41.54 55 31 55 C31 45.76 31 36.52 31 27 C20.77 27 10.54 27 0 27 C0 18.09 0 9.18 0 0 Z " fill="#C44D4D" transform="translate(97,157)"/>
<path d="M0 0 C4.112 -0.025 8.223 -0.043 12.335 -0.055 C13.735 -0.06 15.135 -0.067 16.534 -0.075 C18.542 -0.088 20.551 -0.093 22.559 -0.098 C23.163 -0.1 23.163 -0.1 26.224 -0.114 C29 0 29 0 30 1 C30.087 2.854 30.107 4.711 30.098 6.566 C30.095 7.579 30.093 8.592 30.09 9.635 C30.081 10.931 30.072 12.227 30.062 13.562 C30.042 17.667 30.021 21.771 30 26 C40.56 26 51.12 26 62 26 C62 33.92 62 41.84 62 50 C64.287 49.977 66.574 49.954 68.93 49.93 C71.14 49.914 73.351 49.902 75.562 49.89 C77.1 49.88 78.639 49.866 80.177 49.849 C82.386 49.825 84.595 49.814 86.805 49.805 C87.494 49.794 88.184 49.784 88.895 49.773 C90.598 49.773 92.301 49.878 94 50 C94.66 50.66 95.32 51.32 96 52 C91.034 52.025 86.068 52.043 81.101 52.055 C79.411 52.06 77.72 52.067 76.029 52.075 C73.604 52.088 71.179 52.093 68.754 52.098 C68.374 52.1 68.374 52.1 66.45 52.113 C64.633 52.113 62.816 52.062 61 52 C60 51 60 51 59.886 48.683 C59.892 47.683 59.897 46.683 59.902 45.652 C59.905 44.68 59.907 43.708 59.91 42.707 C59.919 41.463 59.928 40.219 59.938 38.938 C59.958 34.998 59.979 31.059 60 27 C49.77 27 39.54 27 29 27 C28.835 22.875 28.835 22.875 28 2 C23.38 1.835 23.38 1.835 0 1 C0 0.67 0 0.34 0 0 Z " fill="#933A4E" transform="translate(1,105)"/>
<path d="M0 0 C0.33 0 0.66 0 1 0 C1.2 8.814 1.384 17.628 1.547 26.443 C1.623 30.536 1.704 34.628 1.799 38.721 C1.89 42.669 1.966 46.618 2.032 50.567 C2.06 52.075 2.093 53.582 2.132 55.089 C2.185 57.199 2.219 59.308 2.249 61.417 C2.273 62.619 2.298 63.82 2.323 65.058 C2 68 2 68 0.661 69.896 C-1.938 71.624 -4.126 71.233 -7.199 71.074 C-8.408 71.019 -9.616 70.965 -10.861 70.908 C-11.493 70.872 -11.493 70.872 -14.688 70.688 C-15.962 70.626 -17.236 70.565 -18.549 70.502 C-21.7 70.349 -24.85 70.176 -28 70 C-28 77.59 -28 85.18 -28 93 C-28.66 93 -29.32 93 -30 93 C-30.33 85.74 -30.66 78.48 -31 71 C-34.63 70.67 -38.26 70.34 -42 70 C-41 67 -41 67 -38.688 65.812 C-36 65 -36 65 -32 65 C-32 66.32 -32 67.64 -32 69 C-21.44 69 -10.88 69 0 69 C0 46.23 0 23.46 0 0 Z " fill="#76AF7E" transform="translate(647,389)"/>
<path d="M0 0 C9.57 0 19.14 0 29 0 C28.67 0.66 28.34 1.32 28 2 C19.42 2 10.84 2 2 2 C2 10.25 2 18.5 2 27 C-7.9 27 -17.8 27 -28 27 C-28 35.58 -28 44.16 -28 53 C-39.55 53 -51.1 53 -63 53 C-63 52.67 -63 52.34 -63 52 C-51.78 52 -40.56 52 -29 52 C-29 43.42 -29 34.84 -29 26 C-19.43 26 -9.86 26 0 26 C0 17.42 0 8.84 0 0 Z " fill="#709C2C" transform="translate(618,105)"/>
<path d="M0 0 C0.66 0.99 1.32 1.98 2 3 C4.889 3.432 4.889 3.432 8.539 3.512 C9.19 3.529 9.19 3.529 12.484 3.619 C13.865 3.642 15.245 3.665 16.625 3.688 C18.013 3.721 19.401 3.755 20.789 3.791 C24.192 3.874 27.596 3.939 31 4 C31 11.92 31 19.84 31 28 C30.67 28 30.34 28 30 28 C29.67 20.41 29.34 12.82 29 5 C26.36 5.66 23.72 6.32 21 7 C20.67 7.99 20.34 8.98 20 10 C14.39 9.34 8.78 8.68 3 8 C3 8.66 3 9.32 3 10 C4.65 10 6.3 10 8 10 C8 11.65 8 13.3 8 15 C7.67 15.165 7.67 15.165 6 16 C5.67 14.68 5.34 13.36 5 12 C3.35 12.33 1.7 12.66 0 13 C-0.8 9.713 -1.097 8.29 0 5 C-1.32 5 -2.64 5 -4 5 C-4 4.01 -4 3.02 -4 2 C-2.68 2 -1.36 2 0 2 C0 1.34 0 0.68 0 0 Z " fill="#E04739" transform="translate(156,46)"/>
<path d="M0 0 C0.33 0 0.66 0 1 0 C1.33 17.49 1.66 34.98 2 53 C2.66 53 3.32 53 4 53 C4.008 53.597 4.016 54.194 4.025 54.809 C4.11 61.005 4.21 67.202 4.317 73.398 C4.356 75.712 4.391 78.027 4.422 80.341 C4.467 83.663 4.525 86.984 4.586 90.305 C4.597 91.344 4.609 92.384 4.621 93.455 C4.641 94.416 4.661 95.377 4.681 96.367 C4.694 97.215 4.708 98.063 4.722 98.937 C5 101 5 101 7 103 C7.145 105.581 7.187 108.049 7.125 110.625 C7.116 111.331 7.107 112.038 7.098 112.766 C7.074 114.511 7.038 116.255 7 118 C6.01 117.67 5.02 117.34 4 117 C4 124.92 4 132.84 4 141 C3.67 141 3.34 141 3 141 C3 112.29 3 83.58 3 54 C2.34 54 1.68 54 1 54 C0.097 50.914 -0.122 48.166 -0.114 44.956 C-0.113 43.955 -0.113 42.955 -0.113 41.924 C-0.108 40.85 -0.103 39.777 -0.098 38.672 C-0.096 37.568 -0.095 36.464 -0.093 35.326 C-0.088 31.801 -0.075 28.275 -0.062 24.75 C-0.057 22.359 -0.053 19.969 -0.049 17.578 C-0.038 11.719 -0.021 5.859 0 0 Z " fill="#1190EC" transform="translate(0,216)"/>
<path d="M0 0 C0.33 0 0.66 0 1 0 C1 9.57 1 19.14 1 29 C10.57 29 20.14 29 30 29 C30 29.33 30 29.66 30 30 C20.43 30 10.86 30 1 30 C1 48.15 1 66.3 1 85 C-8.9 85 -18.8 85 -29 85 C-29 84.67 -29 84.34 -29 84 C-19.43 84 -9.86 84 0 84 C0 66.18 0 48.36 0 30 C-9.57 30 -19.14 30 -29 30 C-29 29.67 -29 29.34 -29 29 C-19.43 29 -9.86 29 0 29 C0 19.43 0 9.86 0 0 Z " fill="#E8E8E8" transform="translate(158,375)"/>
<path d="M0 0 C10.23 0 20.46 0 31 0 C31 8.58 31 17.16 31 26 C42.55 26 54.1 26 66 26 C66 34.58 66 43.16 66 52 C65.67 52 65.34 52 65 52 C65 43.75 65 35.5 65 27 C53.12 27 41.24 27 29 27 C29 18.75 29 10.5 29 2 C19.76 2 10.52 2 1 2 C0.67 1.34 0.34 0.68 0 0 Z " fill="#607FC5" transform="translate(30,132)"/>
<path d="M0 0 C0.33 0 0.66 0 1 0 C1 8.58 1 17.16 1 26 C11.23 26 21.46 26 32 26 C32 34.58 32 43.16 32 52 C41.24 52 50.48 52 60 52 C60 52.66 60 53.32 60 54 C50.1 54 40.2 54 30 54 C30 45.09 30 36.18 30 27 C20.1 27 10.2 27 0 27 C0 18.09 0 9.18 0 0 Z " fill="#D5665E" transform="translate(218,266)"/>
<path d="M0 0 C8.91 0 17.82 0 27 0 C27 0.66 27 1.32 27 2 C18.75 2 10.5 2 2 2 C2.012 3.865 2.023 5.731 2.035 7.652 C2.045 10.081 2.054 12.509 2.062 14.938 C2.071 16.169 2.079 17.401 2.088 18.67 C2.091 19.84 2.094 21.01 2.098 22.215 C2.103 23.299 2.108 24.383 2.114 25.5 C2 28 2 28 1 29 C-1.376 29.088 -3.722 29.115 -6.098 29.098 C-6.452 29.097 -6.452 29.097 -8.246 29.093 C-10.518 29.088 -12.79 29.075 -15.062 29.062 C-16.6 29.057 -18.137 29.053 -19.674 29.049 C-23.449 29.039 -27.225 29.019 -31 29 C-31 37.91 -31 46.82 -31 56 C-31.33 56 -31.66 56 -32 56 C-32 46.76 -32 37.52 -32 28 C-21.44 28 -10.88 28 0 28 C0 18.76 0 9.52 0 0 Z " fill="#D1564C" transform="translate(375,127)"/>
<path d="M0 0 C9.57 0 19.14 0 29 0 C29 8.91 29 17.82 29 27 C38.57 27 48.14 27 58 27 C58 36.24 58 45.48 58 55 C57.67 55 57.34 55 57 55 C57 46.09 57 37.18 57 28 C47.1 28 37.2 28 27 28 C27 19.42 27 10.84 27 2 C18.09 2 9.18 2 0 2 C0 1.34 0 0.68 0 0 Z " fill="#D65B51" transform="translate(216,100)"/>
<path d="M0 0 C0.66 0 1.32 0 2 0 C2 7.26 2 14.52 2 22 C11.9 22 21.8 22 32 22 C32 30.91 32 39.82 32 49 C31.67 49 31.34 49 31 49 C31 41.08 31 33.16 31 25 C20.77 25 10.54 25 0 25 C0 16.75 0 8.5 0 0 Z " fill="#E0938C" transform="translate(126,0)"/>
<path d="M0 0 C10.23 0 20.46 0 31 0 C31 0.66 31 1.32 31 2 C22.09 2 13.18 2 4 2 C3.048 4.855 2.81 6.909 2.684 9.887 C2.645 10.732 2.607 11.577 2.568 12.448 C2.547 12.983 2.547 12.983 2.438 15.688 C2.293 19.091 2.149 22.494 2 26 C-7.9 26 -17.8 26 -28 26 C-26 24 -26 24 -23.478 23.773 C-22.441 23.783 -21.404 23.794 -20.336 23.805 C-19.214 23.811 -18.093 23.818 -16.938 23.824 C-15.762 23.841 -14.586 23.858 -13.375 23.875 C-12.783 23.88 -12.783 23.88 -9.789 23.902 C-6.859 23.926 -3.93 23.962 -1 24 C-0.67 16.08 -0.34 8.16 0 0 Z " fill="#E69B93" transform="translate(459,49)"/>
<path d="M0 0 C9.24 0 18.48 0 28 0 C28 15.18 28 30.36 28 46 C27.34 46 26.68 46 26 46 C26.33 33.46 26.66 20.92 27 8 C25.35 8 23.7 8 22 8 C21 5 21 5 21 1 C14.4 1 7.8 1 1 1 C1 8.59 1 16.18 1 24 C0.67 24 0.34 24 0 24 C0 16.08 0 8.16 0 0 Z " fill="#4BA34C" transform="translate(590,132)"/>
<path d="M0 0 C10.23 0 20.46 0 31 0 C31 0.33 31 0.66 31 1 C21.1 1 11.2 1 1 1 C1 10.24 1 19.48 1 29 C-8.24 29.33 -17.48 29.66 -27 30 C-27.33 37.92 -27.66 45.84 -28 54 C-28.33 54 -28.66 54 -29 54 C-29 45.09 -29 36.18 -29 27 C-19.43 27 -9.86 27 0 27 C0 18.09 0 9.18 0 0 Z " fill="#F5C5BE" transform="translate(459,239)"/>
<path d="M0 0 C9.57 0 19.14 0 29 0 C29 0.33 29 0.66 29 1 C20.42 1 11.84 1 3 1 C3.33 3.64 3.66 6.28 4 9 C4.66 9 5.32 9 6 9 C6 11.31 6 13.62 6 16 C5.34 16 4.68 16 4 16 C4 16.99 4 17.98 4 19 C3.34 19 2.68 19 2 19 C1.67 20.98 1.34 22.96 1 25 C10.24 25 19.48 25 29 25 C29 25.33 29 25.66 29 26 C19.43 26 9.86 26 0 26 C0 17.42 0 8.84 0 0 Z " fill="#C6251C" transform="translate(98,157)"/>
<path d="M0 0 C4.599 -0.021 9.199 -0.041 13.938 -0.062 C15.39 -0.072 16.843 -0.081 18.34 -0.09 C19.474 -0.093 20.609 -0.095 21.777 -0.098 C22.361 -0.1 22.361 -0.1 25.316 -0.114 C28 0 28 0 29 1 C29.087 2.854 29.107 4.711 29.098 6.566 C29.094 7.691 29.091 8.816 29.088 9.975 C29.08 11.159 29.071 12.343 29.062 13.562 C29.058 14.75 29.053 15.938 29.049 17.162 C29.037 20.108 29.021 23.054 29 26 C28.34 25.67 27.68 25.34 27 25 C27 17.41 27 9.82 27 2 C18.42 2 9.84 2 1 2 C1 12.89 1 23.78 1 35 C0.67 35 0.34 35 0 35 C0 23.45 0 11.9 0 0 Z " fill="#3968C8" transform="translate(1,106)"/>
<path d="M0 0 C0.33 0 0.66 0 1 0 C1 5.94 1 11.88 1 18 C10.57 18 20.14 18 30 18 C30 25.92 30 33.84 30 42 C29.67 42 29.34 42 29 42 C29 35.07 29 28.14 29 21 C27.995 21.006 27.995 21.006 22.91 21.035 C20.971 21.042 19.031 21.049 17.092 21.055 C15.741 21.06 14.39 21.067 13.038 21.075 C11.1 21.088 9.161 21.093 7.223 21.098 C6.639 21.1 6.639 21.1 3.684 21.114 C1 21 1 21 0 20 C-0.087 18.511 -0.107 17.019 -0.098 15.527 C-0.094 14.628 -0.091 13.729 -0.088 12.803 C-0.08 11.857 -0.071 10.912 -0.062 9.938 C-0.058 8.988 -0.053 8.039 -0.049 7.061 C-0.037 4.707 -0.021 2.354 0 0 Z " fill="#A6CDEE" transform="translate(0,440)"/>
<path d="M0 0 C1.729 -0.027 3.458 -0.047 5.188 -0.062 C6.15 -0.074 7.113 -0.086 8.105 -0.098 C10.856 -0.005 13.325 0.379 16 1 C16.027 2.625 16.046 4.25 16.062 5.875 C16.074 6.78 16.086 7.685 16.098 8.617 C16 11 16 11 15 13 C10.675 12.519 8.769 11.342 6 8 C5.835 7.649 5.835 7.649 5 5.875 C3.738 3.508 2.444 2.978 0 2 C0 1.34 0 0.68 0 0 Z " fill="#FEFDFD" transform="translate(166,246)"/>
<path d="M0 0 C0.33 0 0.66 0 1 0 C1 9.24 1 18.48 1 28 C-1.766 29.383 -4.01 29.112 -7.102 29.098 C-8.313 29.094 -9.525 29.091 -10.773 29.088 C-12.044 29.08 -13.315 29.071 -14.625 29.062 C-15.904 29.058 -17.183 29.053 -18.5 29.049 C-21.667 29.037 -24.833 29.019 -28 29 C-28.33 37.25 -28.66 45.5 -29 54 C-29.33 54 -29.66 54 -30 54 C-30 45.09 -30 36.18 -30 27 C-20.1 27 -10.2 27 0 27 C0 18.09 0 9.18 0 0 Z " fill="#FAD6D1" transform="translate(400,293)"/>
<path d="M0 0 C10.23 0 20.46 0 31 0 C31 9.24 31 18.48 31 28 C30.34 28 29.68 28 29 28 C29 19.42 29 10.84 29 2 C19.43 2.33 9.86 2.66 0 3 C0 2.01 0 1.02 0 0 Z " fill="#FBD3CC" transform="translate(278,347)"/>
<path d="M0 0 C10.56 0 21.12 0 32 0 C32 9.24 32 18.48 32 28 C31.34 28 30.68 28 30 28 C30 19.42 30 10.84 30 2 C20.1 2 10.2 2 0 2 C0 1.34 0 0.68 0 0 Z " fill="#D76257" transform="translate(274,155)"/>
<path d="M0 0 C0.33 0 0.66 0 1 0 C1 8.91 1 17.82 1 27 C10.57 27 20.14 27 30 27 C30 27.33 30 27.66 30 28 C20.43 28 10.86 28 1 28 C1 37.57 1 47.14 1 57 C0.67 57 0.34 57 0 57 C0 47.43 0 37.86 0 28 C-9.57 28 -19.14 28 -29 28 C-29 27.67 -29 27.34 -29 27 C-19.43 27 -9.86 27 0 27 C0 18.09 0 9.18 0 0 Z " fill="#E8E8E8" transform="translate(188,347)"/>
<path d="M0 0 C0.66 0 1.32 0 2 0 C2.029 4.479 2.047 8.958 2.062 13.438 C2.071 14.717 2.079 15.996 2.088 17.314 C2.09 17.922 2.09 17.922 2.098 20.996 C2.1 21.559 2.1 21.559 2.114 24.408 C2 27 2 27 1 28 C-1.219 28.088 -3.44 28.107 -5.66 28.098 C-5.992 28.097 -5.992 28.097 -7.674 28.093 C-9.803 28.088 -11.933 28.075 -14.062 28.062 C-15.503 28.057 -16.944 28.053 -18.385 28.049 C-21.923 28.038 -25.462 28.021 -29 28 C-29 27.34 -29 26.68 -29 26 C-19.43 26 -9.86 26 0 26 C0 17.42 0 8.84 0 0 Z " fill="#C95845" transform="translate(519,184)"/>
<path d="M0 0 C0.66 0 1.32 0 2 0 C2.33 8.25 2.66 16.5 3 25 C12.625 24.938 12.625 24.938 15.624 24.91 C20.199 24.896 24.499 25.05 29 26 C29 26.33 29 26.66 29 27 C19.43 27 9.86 27 0 27 C0 18.09 0 9.18 0 0 Z " fill="#D45044" transform="translate(189,239)"/>
<path d="M0 0 C0.485 0.01 0.485 0.01 2.938 0.062 C1.947 0.392 0.957 0.723 -0.062 1.062 C-0.062 2.053 -0.062 3.043 -0.062 4.062 C-0.723 4.062 -1.382 4.062 -2.062 4.062 C-2.392 11.322 -2.723 18.582 -3.062 26.062 C16.077 26.062 35.217 26.062 54.938 26.062 C54.938 26.392 54.938 26.723 54.938 27.062 C35.467 27.062 15.998 27.062 -4.062 27.062 C-4.062 0.083 -4.062 0.083 0 0 Z " fill="#E6E5E6" transform="translate(404.0625,319.9375)"/>
<path d="M0 0 C0.495 0.33 0.495 0.33 3 2 C3.328 4.758 3.328 4.758 3.25 8.348 C3.238 9.004 3.227 9.66 3.215 10.336 C3.015 19.377 2.497 28.41 2 37.438 C1.903 39.248 1.807 41.059 1.711 42.869 C1.478 47.246 1.24 51.623 1 56 C0.67 56 0.34 56 0 56 C0 37.52 0 19.04 0 0 Z " fill="#488AE1" transform="translate(0,364)"/>
<path d="M0 0 C9.9 0 19.8 0 30 0 C30 0.66 30 1.32 30 2 C20.76 2.33 11.52 2.66 2 3 C1.67 10.92 1.34 18.84 1 27 C0.67 27 0.34 27 0 27 C0 18.09 0 9.18 0 0 Z " fill="#FDE3DD" transform="translate(340,347)"/>
<path d="M0 0 C0.99 0 1.98 0 3 0 C2.988 1.169 2.977 2.338 2.965 3.543 C2.955 5.091 2.946 6.639 2.938 8.188 C2.929 8.956 2.921 9.725 2.912 10.518 C2.91 10.893 2.91 10.893 2.902 12.793 C2.897 13.479 2.892 14.165 2.886 14.872 C3 17 3 17 4 22 C6.31 22.165 6.31 22.165 18 23 C18 23.33 18 23.66 18 24 C15.187 24.027 12.375 24.047 9.562 24.062 C8.76 24.071 7.958 24.079 7.131 24.088 C5.087 24.097 3.043 24.052 1 24 C0 23 0 23 -0.114 20.775 C-0.108 19.817 -0.103 18.858 -0.098 17.871 C-0.094 16.837 -0.091 15.802 -0.088 14.736 C-0.08 13.648 -0.071 12.559 -0.062 11.438 C-0.058 10.345 -0.053 9.253 -0.049 8.127 C-0.037 5.418 -0.021 2.709 0 0 Z " fill="#EFBD4F" transform="translate(619,0)"/>
<path d="M0 0 C3 0.125 3 0.125 4 1.125 C4.125 4.625 4.125 4.625 4 8.125 C3 9.125 3 9.125 -0.062 9.188 C-1.032 9.167 -2.001 9.146 -3 9.125 C-4.366 6.393 -4.128 4.143 -4 1.125 C-3 0.125 -3 0.125 0 0 Z " fill="#FCFDFC" transform="translate(470,250.875)"/>
<path d="M0 0 C1.667 0 3.333 0 5 0 C5 4.29 5 8.58 5 13 C3.35 12.67 1.7 12.34 0 12 C0 8.04 0 4.08 0 0 Z " fill="#F9F9F9" transform="translate(298,358)"/>
<path d="M0 0 C0.99 0 1.98 0 3 0 C3 0.66 3 1.32 3 2 C12.9 2 22.8 2 33 2 C33.165 2.33 33.165 2.33 34 4 C22.78 3.67 11.56 3.34 0 3 C0 2.01 0 1.02 0 0 Z " fill="#C3231B" transform="translate(63,152)"/>
<path d="M0 0 C0.66 0 1.32 0 2 0 C2 0.66 2 1.32 2 2 C2.66 2 3.32 2 4 2 C4 4.64 4 7.28 4 10 C2.68 10 1.36 10 0 10 C0 6.7 0 3.4 0 0 Z " fill="#FBFBFB" transform="translate(346,361)"/>
<path d="M0 0 C0.33 0 0.66 0 1 0 C1 5.28 1 10.56 1 16 C0.34 16.33 -0.32 16.66 -1 17 C-2.133 10.771 -1.704 6.083 0 0 Z " fill="#3279DD" transform="translate(2,150)"/>
</svg>
